<?xml version="1.0" standalone="no"?>
<!DOCTYPE svg PUBLIC "-//W3C//DTD SVG 20010904//EN"
 "http://www.w3.org/TR/2001/REC-SVG-20010904/DTD/svg10.dtd">
<svg version="1.0" xmlns="http://www.w3.org/2000/svg"
 width="512.000000pt" height="512.000000pt" viewBox="0 0 512.000000 512.000000"
 preserveAspectRatio="xMidYMid meet">
<metadata>
Created by potrace 1.14, written by Peter Selinger 2001-2017
</metadata>
<g transform="translate(0.000000,512.000000) scale(0.100000,-0.100000)"
fill="#000000" stroke="none">
<path d="M2468 4893 c-4 -10 -78 -66 -78 -59 0 3 -12 -6 -26 -19 -15 -14 -31
-25 -35 -25 -8 0 -36 -21 -65 -48 -8 -7 -14 -10 -14 -7 0 4 -17 -6 -37 -22
-21 -16 -58 -42 -83 -58 -25 -17 -48 -34 -52 -40 -4 -5 -8 -7 -8 -3 0 7 -17
-5 -54 -37 -6 -5 -23 -16 -38 -24 -16 -8 -28 -18 -28 -23 0 -4 -6 -8 -13 -8
-7 0 -22 -8 -33 -17 -11 -10 -53 -40 -94 -68 -41 -27 -76 -53 -78 -57 -2 -5
-10 -8 -18 -8 -8 0 -14 -4 -14 -10 0 -5 -7 -10 -15 -10 -9 0 -18 -7 -21 -15
-4 -8 -9 -13 -13 -10 -4 2 -19 -7 -34 -21 -14 -13 -30 -24 -35 -24 -4 0 -19
-10 -32 -22 -14 -13 -25 -21 -25 -19 0 3 -25 -13 -55 -35 -30 -21 -57 -39 -60
-39 -4 0 -14 -7 -23 -15 -36 -33 -47 -40 -61 -40 -7 0 -16 -7 -20 -15 -3 -8
-12 -15 -21 -15 -8 0 -15 -5 -15 -10 0 -6 -11 -15 -25 -20 -14 -5 -25 -14 -25
-20 0 -5 -3 -9 -7 -8 -11 3 -93 -53 -93 -63 0 -5 -7 -5 -17 -2 -11 4 -14 3 -9
-5 4 -7 2 -12 -4 -12 -6 0 -35 -18 -65 -40 -30 -22 -55 -37 -55 -33 0 4 -4 3
-8 -3 -4 -5 -29 -26 -57 -45 -27 -18 -53 -38 -57 -44 -5 -7 -8 -7 -8 0 0 6 -3
6 -8 0 -4 -6 -23 -22 -42 -35 -19 -13 -38 -28 -41 -33 -3 -5 -9 -8 -13 -8 -20
3 -26 0 -21 -9 6 -9 -8 -14 -27 -11 -5 0 -8 -3 -8 -8 0 -5 -16 -18 -35 -30
-35 -20 -47 -55 -22 -64 13 -5 67 23 67 35 0 4 7 8 15 8 9 0 18 7 21 15 4 8 9
13 14 10 4 -2 16 4 27 14 10 10 30 24 43 31 13 7 29 17 34 21 6 5 26 20 44 35
17 14 32 23 32 19 0 -3 7 1 16 9 8 9 21 13 27 9 7 -3 9 -3 5 2 -7 8 87 79 105
80 5 0 15 9 23 19 8 11 14 17 14 13 0 -4 12 3 26 16 14 12 30 22 35 22 5 0 13
5 17 10 4 6 48 37 97 70 50 32 92 63 93 67 2 5 8 6 13 2 5 -3 12 2 15 10 3 9
11 16 18 16 6 0 24 11 39 25 15 14 27 23 27 20 0 -4 7 0 15 7 33 29 45 38 45
33 0 -4 7 0 15 7 34 30 45 38 45 32 0 -4 9 2 20 14 12 12 24 22 29 22 4 0 18
9 31 20 12 11 27 17 33 13 6 -3 7 -1 3 5 -4 7 -1 12 7 12 8 0 18 7 21 16 4 9
9 14 12 11 6 -6 76 41 82 56 2 4 10 7 18 7 8 0 14 5 14 10 0 6 6 10 13 10 8 0
22 9 32 20 10 11 22 17 26 14 5 -3 9 -1 9 3 0 5 50 42 110 83 61 40 110 77
110 82 0 5 4 7 8 4 5 -3 18 4 30 14 12 11 23 20 26 20 2 0 30 18 62 41 33 22
71 48 86 57 16 9 28 21 28 25 0 5 5 5 10 2 6 -3 10 -1 10 5 0 6 5 8 10 5 6 -3
10 -2 10 4 0 5 13 18 29 27 16 10 27 24 26 33 -2 9 -4 19 -4 24 -1 4 -10 7
-20 7 -11 0 -21 -3 -23 -7z"/>
<path d="M2806 4884 c-4 -9 -9 -14 -12 -11 -3 3 -14 -2 -24 -11 -29 -26 -42
-36 -85 -62 -22 -13 -46 -30 -53 -37 -7 -7 -17 -13 -21 -13 -7 0 -97 -64 -128
-90 -7 -5 -16 -10 -21 -10 -5 0 -17 -9 -27 -20 -10 -11 -20 -18 -22 -16 -3 2
-13 -3 -23 -12 -34 -31 -49 -42 -57 -42 -4 0 -21 -11 -37 -25 -16 -14 -32 -25
-36 -25 -3 0 -16 -9 -28 -20 -12 -12 -22 -18 -22 -15 0 6 -13 -4 -45 -33 -8
-7 -15 -11 -15 -7 0 3 -10 -3 -22 -15 -12 -11 -28 -20 -35 -20 -8 0 -11 -4 -8
-10 3 -5 -6 -12 -20 -16 -14 -3 -25 -10 -25 -15 0 -5 -7 -9 -15 -9 -8 0 -15
-3 -15 -8 0 -4 -16 -16 -35 -26 -19 -11 -35 -24 -35 -29 0 -6 -3 -7 -6 -4 -4
4 -20 -5 -36 -18 -16 -14 -36 -25 -44 -25 -9 0 -13 -4 -9 -9 3 -5 -4 -12 -15
-16 -11 -3 -20 -11 -20 -16 0 -6 -4 -7 -10 -4 -5 3 -10 1 -10 -4 0 -6 -4 -11
-9 -11 -6 0 -62 -36 -125 -80 -64 -44 -120 -80 -125 -80 -6 0 -16 -9 -24 -20
-8 -11 -17 -17 -20 -14 -4 4 -9 -1 -13 -10 -3 -9 -12 -16 -20 -16 -8 0 -14 -4
-14 -10 0 -5 -6 -10 -13 -10 -7 0 -22 -8 -33 -18 -10 -10 -37 -29 -59 -42 -22
-13 -45 -31 -52 -40 -7 -8 -13 -10 -13 -5 0 7 -3 7 -8 0 -11 -15 -70 -55 -81
-55 -5 0 -11 -3 -13 -7 -6 -15 -76 -62 -82 -56 -3 4 -6 2 -6 -4 0 -6 -13 -16
-30 -23 -16 -7 -28 -15 -25 -19 2 -4 -13 -16 -33 -27 -20 -10 -44 -25 -52 -32
-8 -7 -18 -12 -22 -12 -4 0 -20 -12 -34 -25 -15 -14 -34 -25 -43 -25 -12 0
-13 -2 -4 -8 7 -4 16 -23 19 -42 4 -19 3 -31 -2 -27 -5 3 -30 -10 -54 -29 -25
-19 -55 -39 -67 -44 -15 -6 -23 -18 -23 -33 0 -22 -46 -67 -69 -67 -5 0 -12
-7 -15 -16 -3 -8 -11 -12 -17 -8 -8 4 -9 -1 -4 -17 9 -29 25 -49 25 -30 0 7 4
10 9 7 4 -3 16 3 26 14 10 11 24 20 30 20 7 0 16 7 19 16 3 8 10 12 16 9 6 -3
13 1 16 9 3 9 11 16 16 16 5 0 36 21 69 46 32 25 59 43 59 40 0 -3 9 2 19 12
36 32 106 79 106 71 0 -2 14 8 30 24 16 15 33 27 37 27 3 0 13 6 20 13 19 18
152 104 162 105 5 0 12 4 15 9 3 5 29 25 56 44 28 18 56 41 63 49 12 13 13 13
6 0 -9 -17 36 17 49 38 5 7 12 10 18 7 5 -4 9 -1 9 5 0 6 5 8 10 5 6 -3 10 -3
10 2 0 4 27 26 59 47 55 37 58 41 49 65 -6 17 -6 27 1 29 6 2 9 7 6 12 -3 4 8
13 24 20 16 6 32 18 35 27 3 8 10 11 16 8 5 -3 10 -1 10 6 0 7 3 9 6 6 4 -4
15 3 25 14 9 11 19 19 21 17 2 -1 19 10 39 25 20 15 39 27 42 27 14 0 48 41
42 50 -4 6 -1 10 5 10 6 0 9 4 6 9 -3 5 2 12 12 16 23 8 186 118 190 128 2 4
10 7 18 7 8 0 14 5 14 10 0 6 6 10 14 10 8 0 17 7 20 16 3 8 10 13 14 10 5 -3
20 5 33 17 13 12 27 21 31 19 5 -1 8 2 8 8 0 5 6 10 14 10 8 0 16 7 20 15 3 8
12 15 20 15 8 0 16 3 18 8 2 4 37 30 78 57 41 28 77 53 78 58 2 4 9 7 16 7 8
0 25 12 40 26 14 15 26 24 26 20 0 -6 12 2 45 32 8 7 15 11 15 7 0 -3 6 -1 13
5 43 37 61 50 67 50 3 0 16 9 28 20 12 12 22 18 22 15 0 -4 17 7 37 24 20 16
40 28 44 26 4 -3 9 5 12 17 4 12 1 25 -5 29 -6 4 -7 12 -4 18 4 6 3 11 -2 11
-6 0 -13 -7 -16 -16z"/>
<path d="M2080 4853 c-13 -13 -30 -23 -37 -23 -7 0 -13 -4 -13 -8 0 -5 -12
-15 -27 -23 -16 -8 -30 -16 -33 -19 -3 -3 -52 -37 -110 -75 -122 -81 -115 -77
-157 -111 -18 -14 -33 -22 -33 -17 0 4 -4 3 -8 -2 -11 -16 -80 -65 -90 -65 -6
0 -12 -4 -14 -8 -1 -5 -32 -28 -68 -52 -36 -24 -67 -47 -68 -52 -2 -4 -8 -6
-13 -2 -5 3 -9 0 -9 -5 0 -6 -7 -11 -15 -11 -8 0 -15 -4 -15 -8 0 -9 -62 -47
-72 -44 -5 1 -8 -2 -8 -6 0 -5 -17 -20 -37 -34 -138 -91 -169 -113 -181 -124
-6 -7 -21 -16 -32 -19 -11 -3 -20 -11 -20 -17 0 -6 -3 -9 -6 -5 -4 3 -12 1
-20 -6 -33 -30 -42 -35 -48 -30 -3 4 -6 1 -6 -5 0 -7 -6 -12 -14 -12 -8 0 -16
-7 -20 -15 -3 -8 -12 -15 -20 -15 -8 0 -16 -4 -18 -8 -4 -10 -119 -89 -131
-90 -5 0 -17 -11 -28 -23 -10 -12 -19 -18 -19 -13 0 5 -6 2 -13 -6 -7 -8 -24
-21 -39 -29 -16 -8 -28 -20 -28 -28 0 -7 0 -16 0 -20 0 -4 11 -8 25 -10 14 -2
25 1 25 6 0 5 9 13 20 16 11 4 18 10 16 14 -3 4 1 8 8 8 10 0 69 36 86 53 3 3
39 27 80 55 41 27 78 54 82 60 4 5 11 10 15 10 10 0 76 46 85 60 4 5 8 6 8 2
0 -4 10 1 22 13 12 11 26 20 30 20 9 0 24 11 59 43 10 9 19 14 19 11 0 -3 18
9 40 26 22 17 40 28 40 23 0 -4 6 -1 13 8 7 8 27 24 45 34 17 11 32 23 32 28
0 4 5 5 10 2 6 -3 10 -1 10 4 0 6 6 11 14 11 8 0 17 7 20 16 4 9 9 14 12 11 4
-3 15 2 25 12 11 10 31 24 46 32 15 8 38 24 51 37 14 12 31 22 38 22 7 0 14 4
16 8 2 5 42 35 91 67 48 32 87 63 87 68 0 6 3 8 6 4 6 -6 133 78 146 97 4 6 8
7 8 2 0 -5 10 -1 23 10 24 22 74 54 82 54 3 0 14 8 24 18 36 32 50 42 60 42 6
0 7 7 4 17 -4 11 -3 14 6 9 10 -6 10 -4 0 11 -15 26 -29 25 -59 -4z"/>
<path d="M3060 4830 c-14 -15 -28 -25 -33 -23 -4 2 -10 -3 -13 -11 -3 -9 -10
-14 -14 -11 -5 3 -13 -2 -18 -11 -5 -9 -12 -15 -15 -15 -20 3 -28 0 -23 -8 3
-5 -2 -12 -12 -16 -26 -10 -156 -98 -165 -112 -4 -7 -14 -13 -21 -13 -7 0 -28
-13 -46 -30 -18 -16 -40 -30 -47 -30 -7 0 -13 -4 -13 -10 0 -5 -6 -10 -14 -10
-8 0 -16 -3 -18 -7 -6 -15 -76 -62 -82 -56 -3 4 -6 -1 -6 -11 0 -9 -4 -14 -10
-11 -5 3 -10 1 -10 -5 0 -6 -4 -9 -9 -5 -5 3 -17 -5 -25 -17 -9 -12 -16 -18
-16 -13 0 6 -7 2 -14 -8 -8 -10 -17 -17 -21 -16 -4 1 -26 -13 -50 -31 -24 -18
-46 -32 -49 -31 -3 0 -15 -7 -25 -16 -34 -32 -55 -48 -61 -48 -3 0 -26 -15
-52 -33 -26 -17 -52 -32 -58 -32 -6 0 -9 -4 -5 -9 3 -5 -4 -12 -15 -16 -11 -3
-20 -11 -20 -17 0 -6 -3 -8 -7 -5 -3 4 -18 -3 -31 -15 -14 -13 -21 -16 -17 -8
5 8 -4 3 -20 -12 -15 -16 -34 -28 -41 -28 -8 0 -14 -5 -14 -10 0 -6 -11 -15
-25 -20 -14 -5 -25 -14 -25 -19 0 -6 -8 -8 -17 -4 -10 3 -15 3 -11 -2 4 -4
-15 -23 -43 -41 -28 -18 -64 -43 -81 -56 -17 -12 -32 -22 -35 -20 -2 1 -10 -3
-17 -10 -20 -19 -53 -41 -60 -40 -3 1 -22 -14 -43 -33 -21 -19 -43 -35 -49
-35 -6 0 -19 -9 -28 -19 -10 -11 -29 -22 -42 -25 -14 -4 -22 -11 -19 -16 6 -9
-8 -14 -27 -11 -5 0 -8 -3 -8 -8 0 -5 -17 -20 -37 -32 -21 -13 -44 -29 -51
-35 -6 -7 -21 -16 -32 -19 -11 -3 -20 -11 -20 -16 0 -5 -7 -9 -15 -9 -8 0 -15
-5 -15 -11 0 -5 -4 -8 -9 -5 -5 3 -12 -1 -15 -10 -3 -8 -10 -13 -15 -9 -6 3
-15 -4 -21 -15 -6 -11 -15 -18 -19 -15 -5 2 -15 -2 -22 -11 -7 -8 -26 -22 -43
-31 -16 -9 -36 -22 -44 -29 -7 -8 -33 -26 -58 -40 -24 -14 -44 -30 -44 -36 0
-5 -4 -7 -9 -4 -5 3 -12 -1 -15 -9 -3 -9 1 -18 8 -21 22 -9 7 -42 -30 -65 -19
-11 -41 -28 -49 -36 -8 -8 -15 -12 -15 -9 0 3 -8 -2 -18 -11 -11 -10 -17 -21
-15 -25 6 -12 -9 -38 -23 -38 -8 0 -14 -4 -14 -10 0 -5 -6 -10 -14 -10 -8 0
-16 -4 -18 -8 -2 -5 -32 -28 -68 -52 -36 -24 -67 -47 -68 -52 -2 -4 -9 -5 -14
-2 -12 8 -2 -13 16 -32 12 -12 56 2 56 18 0 4 7 8 15 8 8 0 15 5 15 10 0 6 6
9 13 8 6 -2 11 3 9 10 -1 8 2 11 7 8 5 -3 14 1 21 9 7 8 16 15 21 15 8 0 34
19 63 46 6 5 18 13 26 17 40 20 59 34 53 40 -3 4 -1 7 5 7 7 0 14 0 17 0 3 0
13 8 23 18 10 9 29 24 42 32 13 8 32 23 42 33 10 9 18 15 18 12 0 -3 25 13 55
35 30 22 59 40 65 40 6 0 8 5 4 12 -4 6 -3 8 4 4 6 -3 23 5 38 19 14 13 30 22
35 19 5 -3 9 0 9 5 0 6 7 11 16 11 8 0 13 4 9 9 -3 5 4 12 15 16 11 3 27 14
37 23 9 9 19 17 22 18 13 1 71 40 71 47 0 4 6 7 14 7 8 0 17 7 20 16 3 8 10
12 16 9 5 -3 10 -1 10 4 0 6 6 11 14 11 8 0 17 7 20 16 3 8 10 13 14 10 5 -3
19 6 32 19 13 13 27 22 31 19 5 -3 9 -1 9 4 0 10 101 77 113 74 4 -1 7 5 7 14
0 8 4 13 8 10 5 -3 18 3 29 13 10 10 29 24 42 30 12 7 33 22 46 33 21 18 22
22 9 35 -15 16 -19 33 -6 33 4 0 19 11 34 24 14 14 29 22 32 19 3 -4 6 -1 6 6
0 7 5 9 10 6 6 -3 10 1 10 10 0 9 4 14 8 11 5 -3 19 4 30 15 12 11 22 16 22
12 0 -4 5 0 11 10 5 9 16 17 23 17 8 0 16 14 20 31 3 17 10 28 15 24 5 -3 13
0 18 7 4 7 28 27 53 43 25 17 47 33 48 38 2 4 10 7 18 7 8 0 17 7 20 15 4 8
10 13 14 10 5 -3 13 3 19 12 6 10 11 14 11 9 0 -5 9 1 19 13 11 12 22 22 25
23 21 0 45 12 41 18 -3 5 3 11 14 15 10 3 29 14 41 25 12 11 27 17 33 13 6 -3
7 -1 3 5 -4 7 -1 12 8 12 9 0 16 4 16 8 0 5 16 17 35 28 19 10 35 22 35 26 0
5 7 8 15 8 7 0 19 8 24 18 6 9 11 13 11 8 0 -6 9 0 21 12 11 12 24 20 30 17 5
-4 9 -2 9 3 0 11 141 107 153 104 4 -1 7 2 7 7 0 5 20 22 45 38 25 15 45 31
45 36 0 4 5 7 11 7 11 0 82 50 87 63 2 4 8 5 13 1 5 -3 9 0 9 5 0 6 5 11 10
11 6 0 20 9 32 20 12 10 25 17 30 14 4 -3 8 -1 8 5 0 5 2 16 5 23 4 9 -4 19
-17 25 -19 8 -27 5 -48 -17z"/>
<path d="M3349 4799 c-20 -20 -77 -59 -84 -59 -3 0 -15 -9 -27 -20 -12 -11
-34 -25 -49 -32 -15 -7 -25 -16 -23 -20 5 -7 -10 -12 -28 -9 -5 0 -8 -3 -8 -8
0 -5 -17 -20 -37 -32 -38 -24 -52 -34 -78 -56 -7 -7 -17 -13 -22 -13 -5 0 -24
-13 -43 -30 -19 -16 -41 -29 -47 -30 -7 0 -13 -5 -13 -11 0 -5 -4 -7 -10 -4
-5 3 -10 2 -10 -3 0 -9 -116 -92 -130 -92 -5 0 -10 -4 -12 -8 -1 -5 -30 -26
-63 -47 -33 -22 -82 -56 -110 -77 -27 -20 -51 -35 -53 -33 -2 2 -12 -4 -22
-13 -31 -28 -49 -42 -54 -42 -3 0 -14 -7 -23 -15 -10 -8 -21 -15 -25 -15 -4 0
-20 -12 -34 -25 -15 -14 -33 -25 -40 -25 -8 0 -14 -4 -14 -9 0 -9 -96 -71
-110 -71 -5 0 -10 -3 -12 -8 -5 -12 -108 -85 -108 -76 0 4 -8 -2 -17 -12 -23
-24 -110 -84 -123 -84 -6 0 -10 -4 -10 -8 0 -9 -56 -44 -66 -42 -4 1 -11 -5
-16 -14 -5 -9 -16 -16 -24 -16 -8 0 -13 -4 -9 -9 3 -5 -4 -12 -15 -16 -11 -3
-20 -11 -20 -16 0 -5 -3 -8 -7 -7 -7 3 -121 -68 -133 -82 -3 -3 -23 -17 -45
-30 -22 -13 -42 -26 -45 -29 -14 -15 -130 -91 -140 -91 -6 0 -9 -4 -6 -9 3 -5
-1 -12 -10 -15 -10 -4 -13 -2 -8 7 4 6 -4 0 -17 -14 -14 -14 -39 -34 -57 -44
-18 -11 -32 -23 -32 -28 0 -4 -4 -6 -9 -3 -5 3 -14 -1 -21 -9 -7 -8 -18 -15
-25 -15 -8 0 -15 -4 -17 -8 -3 -9 -88 -68 -100 -71 -4 -1 -19 -12 -33 -25 -25
-23 -33 -46 -16 -46 17 0 7 -40 -11 -46 -10 -3 -18 -10 -18 -15 0 -5 -6 -9
-13 -9 -8 0 -22 -9 -32 -20 -10 -11 -24 -20 -32 -20 -7 0 -13 -4 -13 -10 0 -5
-7 -10 -15 -10 -9 0 -18 -7 -21 -15 -4 -8 -10 -13 -14 -10 -4 2 -7 -3 -7 -13
0 -34 -3 -43 -12 -37 -5 3 -17 -5 -26 -17 -8 -13 -18 -22 -20 -20 -12 6 -26 1
-20 -7 3 -5 -3 -12 -14 -16 -10 -3 -29 -14 -41 -25 -12 -11 -27 -17 -33 -13
-5 3 -7 2 -4 -4 3 -5 -10 -17 -29 -28 -19 -10 -34 -22 -34 -27 0 -4 -6 -8 -14
-8 -21 0 -15 -39 6 -46 17 -5 27 0 68 38 10 9 21 14 24 10 3 -3 6 1 6 8 0 7 3
11 6 8 3 -4 14 1 24 10 35 32 49 42 59 42 5 0 11 3 13 8 2 4 23 21 48 37 25
17 96 66 158 110 63 44 121 85 130 90 9 6 25 18 36 28 11 9 26 17 33 17 8 0
16 7 19 15 4 8 12 15 18 15 7 0 22 9 34 20 12 12 22 18 22 15 0 -6 20 10 50
39 11 11 20 16 20 12 0 -7 20 7 78 55 6 5 12 7 12 4 0 -4 7 0 15 7 39 35 127
93 138 90 4 -1 7 2 7 7 0 5 15 18 33 30 17 11 41 26 52 33 11 7 22 15 25 18
15 15 71 50 80 50 5 0 10 5 10 10 0 6 7 10 15 10 8 0 15 4 15 8 0 5 12 15 28
23 15 8 36 22 46 32 11 9 26 17 33 17 7 0 13 4 13 8 0 4 14 16 30 25 28 17 42
57 20 57 -5 0 -10 7 -10 15 0 8 4 15 9 15 5 0 16 6 23 13 7 7 41 30 75 52 34
22 59 43 56 47 -2 5 -1 8 4 7 18 -5 61 24 59 39 -3 20 6 29 66 67 27 17 48 33
48 38 0 4 6 7 13 7 7 0 24 10 37 23 14 12 28 22 31 22 4 0 19 10 32 22 14 12
28 19 31 16 3 -4 6 -1 6 6 0 7 5 9 10 6 6 -3 10 -2 10 3 0 5 37 34 83 63 45
30 91 62 101 71 11 10 24 18 28 18 9 0 23 11 58 42 10 9 20 14 23 12 2 -2 10
2 17 11 7 8 18 15 26 15 7 0 17 6 21 13 4 7 24 24 43 37 19 13 38 29 42 35 4
5 8 6 8 2 0 -5 7 -2 15 5 33 30 45 38 54 38 6 0 15 8 20 18 6 9 11 13 11 8 0
-5 8 -2 18 6 9 9 55 42 102 74 47 32 88 63 92 68 4 6 8 7 8 3 0 -5 14 3 31 17
17 14 34 26 39 26 4 0 10 9 13 20 3 13 0 20 -8 20 -7 0 -15 5 -17 11 -3 8 -8
7 -19 -2z"/>
<path d="M1640 4790 c0 -5 -5 -10 -10 -10 -6 0 -23 -11 -38 -25 -15 -14 -32
-25 -39 -25 -7 0 -13 -4 -13 -9 0 -5 -11 -12 -25 -15 -14 -4 -23 -10 -21 -15
3 -5 -8 -14 -24 -21 -17 -7 -30 -17 -30 -22 0 -5 -5 -6 -10 -3 -6 3 -13 -1
-16 -9 -3 -9 -12 -16 -20 -16 -8 0 -14 -4 -14 -9 0 -5 -13 -14 -30 -21 -16 -7
-30 -16 -30 -21 0 -5 -6 -9 -14 -9 -8 0 -17 -7 -20 -16 -3 -8 -10 -12 -16 -9
-5 3 -10 -2 -11 -12 0 -10 -3 -13 -5 -6 -4 8 -16 3 -36 -15 -16 -15 -32 -25
-35 -24 -3 2 -9 0 -12 -5 -10 -13 -81 -65 -81 -58 0 3 -12 -6 -27 -20 -15 -14
-33 -25 -40 -25 -6 0 -13 -4 -15 -9 -1 -5 -46 -37 -98 -72 -52 -35 -96 -67
-98 -71 -2 -4 -10 -8 -18 -8 -8 0 -14 -5 -14 -12 0 -6 -3 -9 -6 -5 -3 3 -15
-3 -27 -14 -11 -10 -33 -24 -48 -31 -15 -7 -26 -15 -24 -19 5 -7 -45 -34 -57
-31 -5 1 -8 -9 -8 -22 0 -40 43 -42 71 -3 3 5 9 8 13 8 19 -3 27 0 22 7 -3 4
11 16 30 27 19 10 34 22 34 27 0 5 4 7 8 4 5 -3 23 8 40 23 17 16 33 26 36 23
3 -2 8 3 12 12 3 9 10 14 14 11 4 -3 13 2 20 10 7 8 16 12 21 9 5 -3 9 -1 9 4
0 5 39 36 88 68 48 32 90 63 94 69 5 6 8 6 8 0 0 -6 3 -6 8 1 8 12 93 71 105
73 4 0 16 9 26 19 37 32 50 42 61 42 5 0 10 3 10 8 0 4 23 20 50 37 28 16 50
33 50 38 0 4 5 5 10 2 6 -3 13 1 16 9 3 9 10 16 15 16 5 0 40 23 79 50 39 28
72 50 75 50 12 0 54 44 49 51 -9 16 -44 31 -44 19z"/>
<path d="M3600 4721 c-14 -8 -27 -18 -30 -22 -3 -3 -25 -19 -50 -34 -25 -15
-48 -33 -52 -39 -4 -6 -8 -7 -8 -3 0 8 -14 -2 -76 -53 -7 -5 -14 -6 -18 -3 -3
3 -8 -2 -12 -11 -3 -9 -12 -16 -20 -16 -8 0 -14 -3 -14 -7 0 -5 -23 -21 -50
-38 -28 -16 -50 -33 -50 -38 0 -4 -4 -6 -9 -3 -5 3 -14 -1 -21 -9 -7 -8 -18
-15 -25 -15 -8 0 -15 -4 -17 -9 -4 -11 -137 -101 -149 -101 -5 0 -9 -3 -9 -7
-1 -11 -80 -59 -92 -55 -5 1 -7 -2 -3 -8 3 -5 1 -10 -5 -10 -6 0 -17 -6 -25
-12 -32 -31 -54 -46 -59 -41 -3 4 -6 1 -6 -5 0 -7 -6 -12 -13 -12 -7 0 -23 -9
-35 -20 -12 -11 -25 -20 -30 -20 -5 0 -17 -9 -27 -20 -10 -11 -22 -20 -27 -20
-4 0 -30 -16 -57 -35 -26 -19 -54 -35 -61 -35 -7 0 -10 -3 -7 -6 3 -4 -20 -23
-53 -43 -33 -20 -69 -44 -80 -53 -11 -10 -20 -15 -20 -11 0 4 -9 -2 -20 -13
-30 -29 -50 -45 -50 -39 0 5 -12 -4 -45 -32 -7 -7 -17 -13 -22 -13 -4 0 -20
-11 -35 -24 -14 -14 -29 -22 -32 -19 -3 4 -6 1 -6 -5 0 -7 -5 -12 -11 -12 -6
0 -17 -6 -24 -12 -33 -30 -45 -38 -55 -38 -5 0 -10 -5 -10 -11 0 -5 -5 -7 -10
-4 -6 3 -13 -1 -16 -9 -3 -9 -10 -16 -15 -16 -16 0 -78 -48 -71 -55 4 -5 -1
-5 -11 -2 -11 4 -20 1 -23 -8 -4 -8 -10 -15 -15 -15 -6 0 -15 -4 -22 -10 -59
-48 -77 -61 -77 -54 0 4 -7 -1 -15 -12 -8 -10 -15 -15 -15 -11 0 4 -6 3 -12
-3 -32 -26 -107 -80 -113 -80 -4 0 -25 -15 -48 -34 -23 -19 -46 -36 -52 -37
-5 -2 -17 -9 -25 -16 -8 -7 -19 -13 -23 -12 -5 0 -17 -9 -26 -20 -10 -11 -21
-18 -25 -14 -3 3 -6 1 -6 -5 0 -7 -7 -12 -15 -12 -8 0 -15 -3 -15 -7 0 -5 -21
-21 -48 -38 -26 -16 -49 -32 -52 -35 -11 -13 -70 -51 -70 -45 0 4 -14 -7 -31
-24 -17 -17 -34 -29 -39 -26 -5 3 -15 -3 -22 -13 -7 -11 -17 -20 -23 -20 -15
-1 -18 -31 -4 -48 9 -12 7 -18 -11 -34 -12 -11 -30 -22 -40 -25 -10 -3 -21
-13 -24 -21 -3 -8 -10 -12 -16 -9 -5 3 -10 1 -10 -4 0 -6 -5 -11 -10 -11 -6 0
-16 -5 -23 -10 -45 -39 -61 -50 -68 -50 -4 0 -10 -13 -14 -30 -4 -16 -11 -30
-16 -30 -5 0 -28 -15 -52 -32 -78 -59 -182 -131 -187 -131 -3 0 -11 -8 -18
-18 -7 -11 -22 -19 -32 -19 -14 0 -18 -6 -15 -22 5 -26 25 -49 25 -28 0 7 3
10 7 7 3 -4 21 4 38 18 18 13 35 21 39 18 3 -4 6 2 6 12 0 10 3 16 6 12 6 -6
76 41 82 56 2 4 9 7 15 7 7 0 28 13 47 30 19 16 36 27 38 25 2 -2 14 5 26 16
35 32 116 89 116 82 0 -3 8 4 19 15 10 12 21 19 25 15 3 -3 6 -2 6 4 0 6 13
16 30 23 16 7 27 16 24 21 -3 5 4 9 16 9 12 0 18 5 15 10 -3 6 1 10 9 10 9 0
16 5 16 11 0 5 5 7 10 4 6 -3 10 -2 10 3 0 5 12 15 28 23 15 8 38 24 52 37 14
12 29 22 35 22 6 0 22 11 37 25 15 14 32 25 38 25 6 0 13 7 16 15 4 8 10 13
14 10 4 -2 19 6 33 19 14 13 28 21 31 18 3 -3 6 0 6 6 0 7 6 12 13 12 6 0 27
14 46 30 18 16 37 27 42 24 5 -3 9 -1 9 4 0 5 30 29 68 53 37 24 76 52 86 61
11 10 23 18 27 18 4 0 14 6 21 13 8 6 21 17 31 22 44 27 192 131 195 138 2 4
8 5 13 1 5 -3 12 2 15 10 3 9 12 16 20 16 8 0 14 5 14 11 0 5 5 7 10 4 6 -3
13 1 16 9 3 9 12 16 20 16 8 0 14 5 14 10 0 6 7 10 15 10 8 0 15 3 16 8 0 4 2
15 4 24 2 9 -4 19 -12 22 -13 5 -13 8 1 21 8 8 17 15 21 15 3 0 30 18 59 40
29 22 58 40 65 40 7 0 9 5 6 10 -3 6 0 10 8 10 8 0 26 11 40 24 14 13 29 21
33 17 4 -3 4 2 1 12 -4 11 1 24 14 35 12 9 27 23 35 30 8 7 14 10 14 5 0 -4 4
-3 8 3 4 6 39 32 79 58 39 25 79 53 87 61 8 9 18 14 20 13 3 -2 16 6 28 17 13
11 26 19 31 17 4 -1 7 2 7 7 0 5 9 13 20 16 11 3 26 12 32 18 16 15 126 87
133 87 3 0 18 12 35 26 34 31 126 91 153 100 9 4 17 10 17 15 0 5 7 9 16 9 8
0 13 4 10 8 -3 5 11 14 30 21 19 7 32 17 29 22 -5 8 1 11 21 8 3 0 14 9 24 21
10 12 21 21 24 21 20 -3 26 0 21 9 -6 9 1 12 22 9 3 0 10 6 15 15 5 9 16 16
23 16 8 0 15 3 15 8 0 4 16 16 35 26 19 11 35 23 35 28 0 4 7 8 15 8 8 0 15 5
15 10 0 6 9 10 21 10 11 0 18 4 15 9 -3 5 8 14 24 21 17 7 30 16 30 21 0 5 5
9 11 9 6 0 17 6 25 14 7 8 18 16 24 18 13 4 3 35 -13 41 -7 2 -23 -3 -37 -12z"/>
<path d="M3832 4648 c-7 -7 -12 -8 -12 -2 0 5 -4 4 -8 -2 -4 -6 -59 -46 -122
-88 -63 -43 -117 -82 -118 -87 -2 -5 -8 -7 -13 -3 -5 3 -9 0 -9 -6 0 -6 -4 -9
-9 -6 -5 3 -12 -1 -15 -10 -4 -9 -9 -14 -12 -11 -3 3 -14 -2 -23 -11 -24 -23
-58 -45 -65 -43 -4 1 -17 -10 -31 -23 -13 -13 -34 -27 -45 -31 -11 -4 -18 -11
-15 -16 4 -5 0 -9 -7 -9 -13 0 -172 -102 -196 -127 -7 -7 -19 -13 -27 -13 -7
0 -15 -7 -19 -15 -3 -8 -12 -15 -19 -15 -8 0 -22 -9 -32 -20 -10 -11 -20 -18
-22 -16 -4 4 -28 -13 -57 -40 -6 -6 -16 -13 -21 -15 -27 -11 -155 -103 -155
-111 0 -5 -4 -7 -8 -4 -5 3 -18 -4 -30 -14 -12 -11 -26 -20 -32 -20 -5 0 -10
-5 -10 -12 0 -6 -3 -9 -6 -5 -3 3 -18 -5 -32 -18 -14 -13 -29 -22 -34 -19 -4
3 -8 0 -8 -5 0 -6 -7 -11 -16 -11 -8 0 -13 -4 -10 -8 3 -5 -9 -16 -27 -25 -39
-21 -67 -38 -84 -54 -7 -6 -28 -21 -48 -33 -19 -12 -35 -26 -35 -31 0 -6 -4
-8 -9 -4 -5 3 -16 -2 -24 -10 -9 -8 -20 -15 -25 -15 -6 0 -13 -7 -16 -16 -3
-8 -10 -12 -16 -9 -5 3 -10 1 -10 -4 0 -6 -7 -11 -15 -11 -8 0 -15 -4 -15 -9
0 -5 -13 -14 -30 -21 -16 -7 -28 -15 -26 -19 3 -4 -9 -13 -25 -20 -17 -7 -42
-24 -56 -37 -14 -13 -32 -24 -39 -24 -8 0 -14 -4 -14 -10 0 -5 -5 -10 -11 -10
-6 0 -17 -6 -24 -12 -35 -31 -45 -38 -45 -31 0 4 -4 3 -8 -3 -8 -11 -121 -89
-137 -94 -5 -2 -16 -10 -24 -17 -8 -8 -26 -22 -40 -31 -14 -9 -42 -29 -62 -44
-20 -15 -39 -25 -43 -21 -3 3 -6 1 -6 -6 0 -7 -13 -17 -30 -22 -16 -6 -28 -15
-25 -19 3 -5 -10 -14 -29 -21 -19 -7 -34 -17 -33 -23 1 -6 -4 -10 -10 -8 -7 1
-13 -3 -13 -10 0 -6 -3 -9 -6 -5 -6 5 -28 -10 -66 -45 -10 -10 -18 -16 -18
-13 0 6 -47 -23 -72 -45 -36 -32 -46 -39 -52 -33 -3 4 -6 0 -6 -7 0 -7 -3 -11
-6 -7 -3 3 -15 -3 -27 -13 -12 -11 -25 -18 -28 -17 -3 1 -13 -6 -22 -15 -17
-16 -14 -46 6 -59 5 -4 -5 -15 -22 -25 -17 -10 -31 -22 -31 -26 0 -4 -7 -8
-15 -8 -8 0 -15 -3 -15 -8 0 -4 -16 -16 -35 -26 -19 -11 -35 -24 -35 -29 0 -6
-3 -8 -6 -4 -9 9 -34 -18 -34 -36 0 -18 -74 -80 -84 -70 -3 3 -6 1 -6 -5 0 -6
-18 -22 -40 -35 -22 -13 -37 -27 -33 -30 3 -4 1 -7 -7 -7 -7 0 -41 -20 -75
-45 -34 -24 -64 -43 -66 -42 -2 1 -3 0 -1 -2 1 -3 -16 -15 -38 -28 -22 -13
-40 -29 -40 -34 0 -6 -4 -8 -9 -4 -12 7 -30 -25 -24 -42 3 -7 11 -13 19 -13
19 0 94 50 94 62 0 5 5 6 10 3 6 -3 10 -2 10 2 0 5 8 13 19 18 32 17 146 98
149 107 2 4 8 8 13 8 11 0 128 83 189 134 14 12 20 14 15 6 -9 -14 -8 -14 5 0
8 8 54 42 103 74 48 33 87 64 87 68 0 5 5 6 10 3 6 -3 13 1 16 9 3 9 10 14 14
11 5 -3 13 3 19 12 6 10 11 14 11 10 0 -8 70 40 82 58 5 7 8 7 8 0 0 -5 7 -1
15 9 8 11 15 16 15 11 0 -5 7 0 16 11 8 10 12 12 8 4 -5 -10 -1 -10 12 3 24
22 142 107 149 107 3 0 15 9 27 20 12 11 28 20 35 20 7 0 13 4 13 8 0 5 16 17
35 28 19 10 35 22 35 26 0 5 7 8 15 8 9 0 18 7 21 15 4 8 10 12 15 9 5 -3 12
2 15 10 3 9 10 14 14 11 5 -3 11 -1 15 4 6 11 93 71 101 71 3 0 10 5 17 10 49
42 61 49 70 43 6 -3 7 -1 3 5 -7 11 6 17 27 13 5 -1 6 2 3 7 -3 5 7 15 22 23
15 8 29 16 32 19 13 13 79 60 85 60 4 0 13 6 20 13 34 30 43 35 49 30 3 -4 6
4 6 16 0 12 -4 19 -10 16 -6 -3 -10 0 -10 9 0 27 12 45 26 39 8 -3 14 -1 14 5
0 10 136 102 152 102 5 0 6 5 3 10 -3 6 1 10 9 10 9 0 25 9 35 19 11 11 23 16
27 13 4 -4 5 0 1 9 -3 10 2 25 13 35 25 27 60 55 60 49 0 -3 32 18 70 45 39
28 74 50 79 50 5 0 12 7 15 16 4 9 9 14 12 11 3 -3 15 2 26 11 11 9 29 25 40
34 11 10 25 15 29 12 5 -3 9 -1 9 4 0 5 30 29 68 53 74 48 85 56 113 82 10 9
22 17 27 17 4 0 27 15 52 33 25 19 56 38 68 41 12 4 20 12 17 17 -4 5 1 9 9 9
9 0 16 5 16 12 0 6 3 8 6 5 4 -4 23 6 43 21 20 15 56 41 81 57 25 17 48 34 52
40 4 5 8 6 8 1 0 -5 9 1 20 14 11 13 20 20 20 16 0 -6 11 2 45 32 8 7 18 13
22 13 9 0 49 27 74 51 9 9 20 14 23 11 3 -4 6 -1 6 5 0 7 7 12 15 12 9 0 18 7
21 15 4 8 10 13 14 10 5 -3 15 4 23 15 7 11 17 17 20 13 4 -3 7 3 7 15 0 12
-5 22 -11 22 -5 0 -7 5 -4 10 8 14 2 13 -13 -2z"/>
<path d="M915 4528 c-66 -45 -121 -86 -123 -90 -2 -4 -10 -8 -18 -8 -8 0 -14
-4 -14 -10 0 -5 -5 -10 -11 -10 -8 0 -73 -44 -114 -78 -6 -5 -17 -11 -24 -13
-9 -3 -6 -12 9 -29 21 -24 22 -25 36 -6 8 11 14 17 14 13 0 -5 6 -3 13 3 31
26 106 80 112 80 4 0 13 6 20 13 30 26 44 37 50 37 6 0 65 39 75 50 3 3 31 23
63 45 32 22 60 42 63 46 7 12 -7 39 -20 39 -6 0 -66 -37 -131 -82z"/>
<path d="M4024 4553 c-21 -15 -42 -31 -46 -37 -4 -6 -8 -7 -8 -2 0 5 -9 -1
-19 -13 -11 -12 -22 -21 -24 -19 -3 2 -17 -7 -31 -19 -14 -13 -26 -21 -26 -18
0 3 -8 -2 -17 -10 -10 -8 -20 -14 -23 -13 -3 2 -20 -11 -38 -27 -19 -17 -38
-30 -43 -30 -5 0 -13 -4 -17 -10 -4 -5 -41 -32 -82 -59 -41 -27 -76 -53 -78
-58 -2 -4 -9 -8 -16 -8 -6 0 -27 -13 -46 -30 -19 -16 -40 -29 -46 -30 -6 0
-19 -9 -29 -20 -10 -11 -20 -18 -22 -16 -3 2 -14 -5 -26 -15 -58 -52 -60 -54
-52 -39 5 8 -11 -2 -36 -23 -25 -20 -49 -34 -52 -30 -4 3 -9 -2 -13 -11 -3 -9
-10 -16 -16 -16 -5 0 -16 -6 -23 -12 -35 -31 -45 -38 -45 -31 0 4 -4 3 -8 -3
-4 -5 -24 -20 -44 -33 -21 -12 -38 -27 -38 -32 0 -5 -3 -8 -7 -7 -7 2 -60 -29
-73 -42 -3 -3 -32 -23 -65 -45 -33 -22 -63 -44 -67 -50 -5 -7 -8 -7 -8 0 0 6
-5 2 -11 -7 -5 -10 -14 -18 -20 -18 -5 0 -19 -9 -31 -20 -12 -11 -28 -20 -35
-20 -7 0 -13 -4 -13 -10 0 -5 -7 -10 -16 -10 -9 0 -12 -5 -8 -11 4 -7 1 -10
-7 -7 -12 4 -36 -12 -75 -50 -8 -7 -14 -10 -14 -7 0 4 -18 -8 -40 -25 -22 -17
-40 -28 -40 -23 0 4 -5 0 -11 -9 -5 -10 -14 -18 -19 -18 -5 0 -33 -18 -62 -39
-28 -22 -55 -38 -60 -35 -4 3 -8 1 -8 -4 0 -5 -43 -38 -95 -73 -52 -34 -95
-67 -95 -72 0 -4 -4 -6 -9 -3 -5 3 -20 -5 -34 -18 -14 -13 -28 -21 -31 -18 -3
3 -6 0 -6 -7 0 -7 -4 -9 -10 -6 -5 3 -10 -1 -10 -9 0 -10 -6 -13 -17 -9 -11 4
-14 3 -9 -5 6 -11 -5 -17 -26 -13 -5 0 -8 -6 -8 -14 0 -8 -3 -14 -7 -13 -7 2
-147 -86 -163 -102 -14 -14 -102 -70 -110 -70 -6 0 -10 -5 -10 -10 0 -6 -11
-15 -25 -20 -14 -5 -25 -15 -25 -21 0 -7 -3 -10 -6 -6 -3 3 -37 -17 -75 -44
-38 -27 -73 -49 -78 -49 -5 0 -11 -4 -13 -8 -1 -4 -39 -32 -83 -62 -44 -30
-83 -59 -87 -65 -5 -7 -8 -7 -8 0 0 6 -4 4 -9 -4 -5 -8 -3 -24 5 -40 10 -19
11 -27 2 -30 -7 -2 -21 -12 -32 -23 -11 -10 -25 -18 -32 -18 -6 0 -15 -7 -18
-16 -3 -8 -10 -13 -15 -10 -5 4 -11 3 -13 -2 -1 -4 -18 -18 -36 -31 -18 -12
-30 -26 -27 -30 6 -11 -37 -61 -53 -61 -7 0 -12 -4 -12 -10 0 -5 -6 -10 -13
-10 -7 0 -19 -9 -27 -19 -7 -11 -17 -18 -20 -16 -4 2 -16 -5 -28 -15 -12 -11
-24 -20 -27 -20 -3 0 -11 -5 -18 -10 -42 -36 -123 -90 -134 -90 -8 0 -11 -4
-8 -10 3 -5 -1 -10 -9 -10 -9 0 -16 -4 -16 -10 0 -5 -7 -10 -15 -10 -8 0 -15
-4 -15 -10 0 -5 -5 -10 -10 -10 -6 0 -20 -9 -32 -20 -12 -11 -28 -20 -35 -20
-13 0 -14 -3 -17 -37 -1 -23 34 -25 51 -3 7 8 13 11 13 7 0 -4 10 1 22 13 12
11 28 20 35 20 8 0 11 5 8 10 -3 6 0 10 8 10 8 0 20 7 27 15 7 9 15 13 17 11
3 -2 13 3 23 12 40 36 55 47 62 45 5 -2 8 2 8 7 0 6 6 10 14 10 8 0 17 7 20
16 3 8 10 13 14 10 5 -3 14 4 22 14 8 10 17 17 22 14 4 -3 8 0 8 7 0 7 3 10 6
6 3 -3 14 2 23 11 10 10 28 24 41 32 13 8 32 23 42 33 10 9 21 17 24 16 6 -1
49 29 70 49 8 7 14 10 14 5 0 -4 5 -1 10 7 5 8 14 15 20 15 6 0 14 5 18 10 4
6 50 39 102 75 52 35 101 70 108 77 7 7 20 13 27 13 8 0 19 9 25 20 6 11 15
18 19 15 5 -2 20 6 34 19 15 14 36 27 47 31 11 3 20 10 20 14 0 5 13 14 30 21
16 7 27 16 24 21 -3 5 1 9 9 9 8 0 24 9 37 20 13 11 27 20 31 20 4 0 14 6 22
14 7 8 30 23 50 34 20 10 34 22 30 26 -3 3 0 6 8 6 9 0 25 9 36 19 12 11 23
17 27 14 3 -3 8 2 12 11 3 9 12 16 19 16 6 0 25 11 41 25 16 14 32 25 35 25 3
0 19 11 35 25 16 14 34 25 40 25 7 0 14 7 18 15 3 8 12 15 20 15 8 0 21 6 28
13 7 7 42 33 78 57 36 25 67 48 68 53 2 4 8 7 14 7 6 0 28 14 49 31 21 17 39
27 39 23 0 -4 7 1 15 12 8 10 15 15 15 10 0 -5 9 1 20 14 18 21 18 25 6 39
-10 11 -12 21 -6 31 5 8 10 11 10 5 0 -6 3 -6 8 1 4 6 43 35 87 65 44 30 88
61 98 69 10 8 21 15 25 15 4 0 18 10 32 23 13 12 28 22 32 22 5 0 6 4 3 10 -7
11 22 59 30 50 2 -3 14 3 25 13 11 9 22 17 25 17 3 0 13 7 22 15 10 8 21 15
26 15 4 0 16 8 26 18 33 29 45 37 94 66 26 15 47 32 47 38 0 5 4 7 9 4 5 -3
12 1 15 10 3 8 10 12 16 9 5 -3 10 -1 10 4 0 6 6 11 14 11 8 0 17 7 20 16 3 8
10 13 15 10 5 -4 11 -3 13 1 5 13 76 63 87 63 6 0 11 4 11 9 0 5 16 16 35 25
19 9 35 21 35 26 0 6 6 10 13 10 7 0 23 9 35 20 12 11 24 20 29 20 4 0 20 12
36 28 17 15 27 20 23 12 -6 -12 -5 -12 6 0 7 9 43 36 81 59 37 24 67 48 67 54
0 6 3 8 6 4 3 -3 11 -2 18 3 56 46 75 60 80 60 3 0 29 16 56 35 28 19 50 33
50 30 0 -3 8 3 18 13 35 32 62 52 62 44 1 -4 10 4 20 17 11 13 20 20 20 17 0
-11 51 26 61 45 7 14 5 20 -9 28 -15 8 -28 4 -58 -16z"/>
<path d="M4253 4469 c-13 -5 -23 -13 -23 -19 0 -6 -4 -9 -8 -6 -5 3 -21 -6
-37 -20 -15 -13 -34 -24 -42 -24 -7 0 -13 -4 -13 -8 0 -9 -117 -92 -130 -92
-4 0 -11 -7 -14 -16 -3 -8 -10 -13 -15 -10 -5 4 -11 2 -13 -3 -1 -5 -9 -11
-17 -13 -7 -2 -30 -17 -49 -35 -20 -17 -40 -30 -44 -27 -4 3 -8 0 -8 -5 0 -6
-5 -11 -11 -11 -6 0 -17 -6 -24 -12 -33 -30 -45 -38 -55 -38 -5 0 -10 -4 -10
-10 0 -5 -7 -10 -15 -10 -9 0 -18 -7 -21 -15 -4 -8 -10 -12 -15 -9 -5 3 -12
-2 -15 -10 -3 -9 -10 -13 -15 -10 -5 3 -9 1 -9 -4 0 -5 -12 -15 -27 -23 -16
-8 -33 -18 -40 -24 -29 -23 -39 -31 -65 -44 -15 -8 -25 -18 -22 -23 3 -4 -1
-8 -9 -8 -8 0 -33 -13 -55 -30 -23 -16 -46 -30 -51 -30 -5 0 -11 -7 -15 -15
-3 -8 -12 -15 -21 -15 -8 0 -15 -4 -15 -10 0 -5 -11 -12 -25 -16 -14 -3 -22
-10 -19 -15 3 -5 -1 -9 -9 -9 -7 0 -24 -10 -37 -22 -14 -13 -27 -23 -30 -23
-3 0 -4 -4 -2 -10 2 -5 0 -7 -4 -3 -4 4 -21 -3 -38 -15 -17 -12 -34 -22 -37
-22 -3 0 -13 -8 -23 -17 -10 -10 -21 -18 -26 -18 -5 0 -15 -6 -22 -12 -20 -19
-76 -58 -83 -58 -4 0 -13 -7 -22 -15 -8 -8 -19 -12 -25 -9 -6 4 -8 2 -4 -4 3
-6 -3 -13 -14 -17 -11 -3 -20 -11 -20 -16 0 -5 -7 -9 -15 -9 -8 0 -15 -5 -15
-12 0 -6 -3 -9 -6 -5 -5 5 -27 -10 -59 -40 -7 -7 -15 -9 -19 -6 -3 3 -8 -2
-12 -11 -3 -9 -10 -13 -15 -10 -5 3 -9 0 -9 -5 0 -6 -5 -11 -10 -11 -6 0 -23
-11 -38 -25 -15 -14 -30 -25 -35 -25 -4 0 -32 -18 -62 -40 -30 -22 -59 -40
-65 -40 -5 0 -10 -5 -10 -12 0 -6 -3 -9 -6 -5 -3 3 -13 -1 -22 -9 -26 -23
-202 -144 -202 -139 0 5 -32 -20 -62 -47 -10 -10 -20 -17 -24 -15 -3 1 -17 -9
-31 -23 -15 -14 -23 -19 -18 -11 5 9 -2 7 -18 -5 -15 -10 -27 -23 -27 -27 0
-5 -4 -6 -9 -3 -5 3 -12 -1 -15 -10 -3 -8 -10 -13 -15 -10 -5 3 -11 -1 -15 -9
-3 -8 -12 -15 -21 -15 -8 0 -15 -4 -15 -10 0 -5 -6 -10 -14 -10 -8 0 -17 -7
-20 -16 -3 -8 -10 -12 -16 -9 -5 3 -10 1 -10 -4 0 -6 -6 -11 -14 -11 -8 0 -17
-7 -20 -16 -3 -8 -10 -12 -16 -9 -5 3 -10 1 -10 -4 0 -6 -7 -11 -15 -11 -8 0
-15 -4 -15 -10 0 -5 -7 -10 -15 -10 -8 0 -15 -4 -15 -10 0 -5 -6 -10 -14 -10
-8 0 -17 -7 -20 -16 -4 -9 -9 -14 -12 -11 -4 3 -12 1 -19 -6 -7 -7 -21 -18
-31 -24 -11 -7 -36 -24 -56 -37 -20 -13 -39 -21 -43 -18 -4 4 -5 3 -3 -3 1 -5
-1 -11 -6 -12 -5 -1 -12 -5 -15 -10 -8 -11 -68 -53 -76 -53 -3 0 -15 -9 -27
-20 -12 -10 -25 -17 -30 -14 -4 3 -8 -3 -8 -12 0 -10 -3 -15 -6 -11 -4 3 -21
-5 -39 -19 -23 -17 -31 -31 -28 -44 3 -11 9 -17 14 -14 16 10 9 -13 -8 -28
-10 -8 -49 -37 -88 -63 -38 -26 -72 -51 -75 -55 -3 -3 -13 -9 -23 -13 -9 -4
-23 -19 -30 -34 -12 -27 -54 -68 -70 -68 -4 0 -11 -5 -15 -11 -4 -6 -24 -20
-44 -31 -21 -11 -35 -23 -31 -27 3 -3 0 -6 -9 -6 -8 0 -23 -9 -33 -20 -10 -11
-22 -20 -27 -20 -5 0 -21 -11 -36 -25 -15 -14 -32 -25 -39 -25 -7 0 -13 -4
-13 -10 0 -5 -7 -10 -15 -10 -9 0 -18 -7 -21 -15 -4 -8 -10 -12 -15 -9 -5 3
-9 1 -9 -3 0 -5 -12 -16 -28 -25 -15 -9 -40 -28 -55 -42 -24 -22 -25 -26 -11
-40 20 -20 50 -5 116 57 10 9 21 18 26 19 16 3 112 71 112 80 0 5 4 7 9 3 6
-3 14 3 20 12 6 10 11 14 11 9 0 -5 11 1 25 14 14 13 25 21 25 17 0 -3 15 7
32 24 18 16 38 29 46 29 7 0 15 7 18 15 4 8 10 13 14 10 4 -3 11 2 14 11 3 8
10 12 16 9 5 -3 10 -1 10 4 0 6 4 11 9 11 6 0 22 11 37 25 14 13 30 22 35 19
5 -3 9 -1 9 4 0 6 20 23 45 39 25 15 45 32 45 36 0 5 5 5 10 2 6 -3 10 -2 10
2 0 5 15 17 33 28 17 10 41 27 51 37 11 10 26 18 33 18 7 0 13 3 13 8 0 4 20
20 45 35 25 16 45 33 45 39 0 5 4 7 9 4 5 -4 22 4 38 17 15 13 98 70 183 127
85 57 158 108 162 114 4 6 8 7 8 3 0 -5 7 -2 15 5 32 29 45 38 53 38 4 0 18 9
30 20 12 12 22 17 22 13 0 -4 4 -3 8 3 4 6 66 50 137 98 72 49 137 95 146 102
9 8 19 11 22 8 4 -4 9 1 13 10 3 9 10 13 15 10 5 -3 9 -1 9 5 0 5 11 16 24 23
43 24 111 71 118 82 4 6 8 7 8 2 0 -6 7 -1 15 10 8 10 15 15 15 9 0 -6 3 -6 8
0 4 6 33 28 64 48 31 21 60 42 63 47 4 6 10 8 14 6 4 -3 14 6 22 20 11 21 11
27 0 33 -10 7 -10 12 0 30 8 11 19 21 26 21 7 0 13 5 13 11 0 5 4 8 9 5 5 -4
11 -3 13 1 4 11 71 60 82 61 5 0 12 4 15 9 3 4 26 22 51 38 58 39 67 48 63 62
-2 6 16 25 41 42 24 17 51 38 59 46 12 11 17 12 20 2 3 -7 6 -4 6 6 1 10 5 16
10 12 6 -3 13 0 18 7 7 12 146 108 168 117 6 2 12 7 15 10 11 14 70 51 80 51
6 0 8 5 5 10 -3 6 3 10 15 10 12 0 18 5 15 10 -3 6 -1 10 4 10 6 0 29 12 50
28 21 15 47 33 57 39 149 99 219 147 222 156 2 4 10 7 17 7 7 0 15 3 17 8 5
11 66 52 78 52 5 0 10 5 10 10 0 6 6 10 13 10 7 0 23 10 37 23 14 13 39 29 57
37 17 8 30 17 27 21 -2 4 4 10 15 14 10 3 29 14 41 25 12 11 27 17 33 13 6 -3
7 -1 3 5 -4 7 -1 12 6 12 7 0 19 9 25 20 11 16 10 21 -5 29 -9 5 -27 5 -39 0z"/>
<path d="M4461 4381 c-1 -8 -4 -11 -7 -8 -4 3 -23 -7 -42 -23 -19 -16 -39 -27
-44 -24 -4 3 -8 1 -8 -5 0 -6 -20 -22 -45 -37 -25 -14 -45 -30 -45 -36 0 -5
-4 -7 -9 -4 -5 4 -11 3 -13 -1 -1 -5 -30 -26 -63 -48 -33 -22 -62 -42 -65 -45
-3 -3 -35 -25 -72 -49 -38 -24 -68 -48 -68 -54 0 -6 -3 -8 -6 -4 -7 7 -167
-100 -172 -114 -2 -5 -8 -7 -13 -3 -5 3 -9 0 -9 -5 0 -6 -5 -11 -11 -11 -6 0
-17 -6 -24 -12 -29 -26 -44 -38 -49 -38 -8 0 -171 -114 -174 -122 -2 -4 -9 -8
-15 -8 -7 0 -28 -14 -47 -30 -19 -16 -40 -30 -47 -30 -6 0 -13 -3 -15 -7 -1
-5 -46 -37 -98 -72 -52 -36 -98 -69 -101 -74 -3 -5 -9 -8 -13 -8 -8 2 -173
-108 -198 -131 -10 -10 -19 -18 -20 -17 -10 3 -56 -26 -52 -32 3 -5 0 -9 -6
-9 -10 0 -160 -98 -170 -112 -3 -3 -12 -8 -20 -10 -8 -2 -21 -11 -28 -21 -7
-9 -17 -15 -21 -13 -4 3 -13 -4 -21 -14 -8 -10 -17 -17 -22 -14 -4 3 -8 0 -8
-7 0 -7 -3 -10 -6 -6 -3 3 -18 -5 -32 -19 -15 -13 -32 -24 -38 -24 -7 0 -14
-7 -18 -15 -3 -8 -12 -15 -19 -15 -8 0 -22 -9 -32 -20 -10 -11 -20 -18 -23
-16 -2 3 -10 0 -18 -7 -32 -29 -44 -37 -53 -37 -5 0 -11 -3 -13 -8 -1 -4 -37
-30 -78 -57 -41 -28 -81 -56 -88 -62 -7 -7 -17 -13 -22 -13 -5 0 -15 -6 -22
-13 -7 -6 -30 -23 -50 -37 -21 -14 -38 -29 -38 -33 0 -5 -4 -5 -10 -2 -5 3
-10 1 -10 -6 0 -7 -3 -10 -6 -6 -3 3 -15 -3 -27 -13 -11 -11 -25 -17 -30 -13
-6 3 -7 2 -4 -4 3 -5 -10 -17 -28 -27 -19 -11 -32 -23 -29 -28 3 -5 2 -8 -3
-7 -14 4 -63 -20 -63 -31 0 -5 -7 -10 -15 -10 -8 0 -15 -4 -15 -10 0 -5 -4
-10 -10 -10 -10 0 -92 -54 -124 -82 -11 -10 -28 -20 -38 -24 -10 -3 -18 -10
-18 -15 0 -5 -6 -9 -13 -9 -8 0 -22 -9 -32 -20 -10 -11 -21 -17 -25 -15 -4 3
-10 -2 -14 -10 -3 -8 -12 -15 -21 -15 -8 0 -15 -4 -15 -10 0 -5 -5 -10 -10
-10 -11 0 -28 -12 -60 -44 -17 -17 -18 -20 -3 -42 8 -13 11 -24 6 -24 -5 0
-19 -9 -31 -20 -12 -12 -22 -18 -22 -15 0 3 -6 1 -12 -5 -56 -46 -73 -58 -80
-54 -4 3 -8 0 -8 -5 0 -6 -6 -11 -13 -11 -7 0 -18 -9 -25 -20 -7 -12 -16 -19
-20 -16 -4 2 -13 -2 -20 -10 -10 -11 -10 -14 0 -14 9 0 9 -3 -2 -10 -8 -5 -11
-10 -6 -10 5 0 3 -7 -4 -15 -7 -8 -16 -12 -21 -9 -5 3 -12 -2 -15 -10 -3 -9
-10 -16 -15 -16 -11 0 -120 -79 -131 -95 -4 -5 -8 -7 -8 -2 0 4 -29 -15 -65
-43 -36 -28 -65 -47 -65 -43 0 4 -7 -2 -15 -13 -8 -10 -15 -15 -15 -11 0 4
-11 -3 -23 -17 -13 -14 -26 -23 -29 -21 -3 3 -11 -1 -17 -9 -17 -20 25 -61 44
-43 7 7 10 16 7 21 -3 5 0 6 5 3 6 -4 16 0 23 8 7 8 19 15 26 15 8 0 14 5 14
11 0 5 5 7 12 3 7 -4 8 -3 4 5 -4 6 0 14 11 18 10 3 41 22 68 43 28 20 95 67
150 105 55 38 103 74 107 79 4 6 8 7 8 2 0 -5 9 1 20 14 11 13 20 19 20 15 0
-5 12 2 27 16 16 14 40 31 56 39 15 7 27 17 27 22 0 4 7 8 15 8 9 0 18 7 21
15 4 8 10 12 15 9 5 -3 12 2 15 10 3 9 12 16 20 16 8 0 14 5 14 11 0 5 4 8 9
5 5 -4 11 -2 13 3 1 5 25 23 52 40 28 17 46 31 40 31 -5 1 5 7 21 14 17 8 39
22 50 33 11 10 25 21 30 22 29 10 34 14 28 24 -3 5 -1 7 5 3 6 -3 18 1 26 10
9 8 16 13 16 10 0 -3 12 6 26 19 15 14 33 25 40 25 7 0 14 4 16 8 5 12 98 74
98 66 0 -4 6 -1 13 7 16 20 112 89 123 89 5 0 27 16 48 35 22 19 46 35 53 35
7 0 13 5 13 10 0 6 7 10 15 10 8 0 15 4 15 8 0 5 12 15 28 23 15 8 29 16 32
19 19 21 139 98 144 93 3 -4 6 1 6 11 0 9 5 14 10 11 6 -3 10 -1 10 6 0 7 3
10 6 6 3 -3 18 5 32 18 14 13 29 22 34 19 4 -3 8 0 8 5 0 6 5 11 11 11 6 0 17
6 24 13 32 28 45 37 79 55 19 11 33 21 31 24 -3 2 15 15 40 27 25 12 45 27 45
32 0 5 4 9 10 9 12 0 141 89 157 108 7 9 9 20 4 26 -19 25 -3 56 32 60 4 1 11
6 15 11 8 11 100 75 108 75 3 0 12 6 19 13 33 29 45 37 55 37 5 0 10 5 10 11
0 5 5 7 10 4 6 -3 10 -1 10 5 0 6 5 8 13 4 8 -5 8 -2 -2 9 -9 12 -10 17 -2 17
7 0 10 4 6 9 -6 10 34 37 48 33 4 -1 7 2 7 8 0 5 12 16 28 24 15 8 36 23 47
33 11 11 23 20 28 21 13 3 192 125 195 134 2 4 9 8 16 8 7 0 21 8 32 18 32 27
114 82 124 82 6 0 10 4 10 8 0 4 22 21 50 37 27 17 50 34 50 38 0 5 5 5 10 2
6 -3 10 -2 10 4 0 5 18 20 40 32 22 13 40 26 40 31 0 4 7 8 15 8 8 0 15 5 15
10 0 6 6 10 13 10 7 0 28 13 47 30 19 16 41 29 48 30 6 0 12 4 12 9 0 5 13 14
30 21 16 7 27 16 24 21 -3 5 2 9 10 9 9 0 16 5 16 10 0 5 3 9 8 8 7 -2 53 25
79 47 7 5 19 16 28 23 8 7 15 9 15 5 0 -4 4 -3 8 2 4 6 33 28 64 48 62 41 76
56 61 66 -6 3 -13 13 -16 21 -4 12 -6 12 -6 1z"/>
<path d="M4419 4124 c-35 -25 -74 -53 -87 -62 -12 -9 -26 -16 -30 -16 -4 1
-18 -10 -31 -25 -14 -14 -27 -24 -29 -22 -2 1 -15 -6 -28 -18 -13 -11 -24 -18
-24 -15 0 6 -74 -48 -78 -58 -2 -5 -8 -8 -13 -8 -11 0 -72 -42 -77 -52 -2 -5
-10 -8 -17 -8 -7 0 -16 -7 -19 -16 -3 -8 -10 -12 -16 -9 -5 3 -10 1 -10 -4 0
-6 -6 -11 -14 -11 -8 0 -17 -7 -20 -16 -3 -8 -10 -12 -16 -9 -5 3 -10 1 -10
-4 0 -6 -5 -11 -10 -11 -11 0 -24 -10 -61 -42 -10 -10 -19 -15 -19 -12 0 3
-17 -7 -37 -23 -21 -16 -51 -37 -68 -48 -16 -10 -35 -26 -42 -34 -7 -9 -13
-12 -13 -8 0 5 -18 -5 -39 -22 -21 -17 -43 -31 -49 -31 -6 0 -12 -3 -14 -7 -4
-11 -98 -76 -98 -68 0 3 -10 -4 -22 -15 -13 -11 -61 -46 -108 -77 -47 -30 -87
-60 -88 -64 -2 -5 -7 -7 -12 -4 -4 3 -13 -2 -20 -10 -7 -8 -19 -15 -27 -15 -8
0 -12 -4 -9 -8 3 -5 -10 -16 -29 -25 -19 -9 -35 -22 -35 -27 0 -6 -4 -9 -9 -6
-5 4 -11 3 -13 -2 -1 -4 -31 -25 -65 -47 -35 -22 -63 -44 -63 -48 0 -5 -4 -5
-10 -2 -5 3 -10 2 -10 -3 0 -5 -16 -17 -35 -28 -19 -10 -35 -21 -35 -24 0 -3
-16 -14 -35 -24 -19 -11 -35 -23 -35 -28 0 -4 -7 -8 -15 -8 -8 0 -15 -5 -15
-11 0 -5 -4 -8 -8 -5 -5 3 -16 -4 -25 -15 -10 -11 -23 -17 -29 -13 -7 4 -8 3
-4 -4 4 -7 1 -12 -8 -12 -9 0 -16 -4 -16 -10 0 -5 -7 -10 -16 -10 -8 0 -12 -4
-9 -10 3 -5 0 -10 -7 -10 -14 0 -181 -109 -186 -122 -2 -4 -10 -8 -17 -8 -7 0
-15 -3 -17 -7 -5 -12 -175 -123 -188 -123 -6 0 -9 -4 -6 -8 3 -4 -11 -16 -30
-27 -19 -10 -34 -23 -34 -28 0 -6 -3 -8 -6 -4 -4 3 -32 -14 -64 -38 -32 -24
-60 -41 -64 -38 -3 4 -6 2 -6 -4 0 -5 -16 -18 -35 -29 -19 -10 -35 -22 -35
-26 0 -5 -7 -8 -15 -8 -8 0 -15 -4 -15 -10 0 -5 -7 -10 -15 -10 -8 0 -15 -4
-15 -10 0 -5 -6 -10 -14 -10 -8 0 -16 -4 -18 -8 -3 -9 -154 -113 -163 -112 -3
0 -14 -8 -25 -17 -11 -10 -29 -26 -39 -35 -11 -9 -21 -15 -23 -13 -2 3 -17 -7
-32 -20 -16 -14 -34 -25 -39 -25 -6 0 -23 -14 -38 -31 -24 -27 -26 -33 -13
-46 7 -8 14 -16 14 -17 0 -1 -26 -20 -57 -42 -32 -21 -63 -43 -70 -49 -7 -5
-19 -15 -27 -22 -7 -6 -16 -9 -19 -7 -3 3 -10 -4 -17 -15 -6 -12 -15 -19 -21
-16 -8 5 -14 -23 -10 -47 0 -5 -9 -8 -21 -8 -12 0 -18 -3 -15 -6 4 -4 -18 -22
-48 -41 -30 -19 -55 -39 -55 -44 0 -6 -4 -8 -8 -5 -5 3 -20 -5 -33 -17 -13
-12 -26 -22 -29 -22 -7 0 -152 -102 -189 -132 -14 -12 -20 -23 -13 -23 7 0 11
-4 8 -9 -3 -5 1 -11 8 -14 8 -3 35 9 59 28 25 19 48 31 52 27 3 -4 5 0 3 8 -2
8 3 14 10 12 7 -1 25 9 40 23 15 14 35 28 45 31 9 3 17 9 17 12 0 4 16 16 35
26 19 11 35 23 35 28 0 4 5 8 11 8 6 0 25 11 43 25 18 14 38 25 45 25 7 0 9 5
6 10 -3 5 -1 10 4 10 11 0 104 63 129 87 7 7 20 13 28 13 8 0 13 4 9 9 -3 5 3
12 14 16 16 5 31 15 78 55 7 5 16 10 20 10 5 0 24 13 43 30 19 16 41 29 48 30
6 0 12 5 12 10 0 6 5 10 10 10 6 0 20 9 32 20 12 11 28 20 35 20 7 0 13 4 13
9 0 5 9 11 21 14 13 4 18 10 13 18 -4 7 -3 10 4 5 6 -3 16 -1 24 6 7 7 25 19
41 27 15 8 27 18 27 23 0 4 7 8 15 8 8 0 15 5 15 11 0 5 5 7 10 4 6 -3 10 -2
10 4 0 6 15 18 33 27 17 9 34 20 37 23 3 3 22 17 42 31 21 14 38 29 38 33 0 5
5 5 10 2 6 -3 13 1 16 9 3 9 9 14 13 12 4 -3 20 7 37 21 16 14 39 29 52 34 13
5 20 14 17 19 -4 6 -3 9 2 8 11 -3 52 20 77 43 11 11 26 19 33 19 7 0 13 5 13
12 0 6 3 9 6 5 3 -3 18 5 32 19 15 13 32 24 39 24 7 0 13 4 13 8 0 5 16 17 35
28 19 10 35 22 35 26 0 5 7 8 15 8 8 0 15 5 15 10 0 6 7 10 15 10 8 0 15 3 15
8 0 4 16 16 35 26 19 11 35 24 35 29 0 6 3 8 6 4 3 -3 11 -1 18 4 56 47 71 57
78 53 4 -3 11 2 14 10 3 9 12 16 19 16 7 0 15 3 17 8 2 4 27 23 56 41 30 19
60 41 68 48 8 8 14 12 14 8 0 -3 10 3 22 15 12 11 25 20 30 20 4 0 19 9 32 21
13 12 27 20 31 19 12 -3 47 44 36 48 -6 2 -9 8 -5 13 3 5 0 9 -7 9 -19 0 20
38 63 62 21 12 38 25 38 28 0 8 52 34 63 31 5 -1 6 2 3 7 -2 4 11 16 30 27 19
10 34 22 34 28 0 5 7 6 16 3 8 -3 12 -2 9 4 -3 6 -1 10 5 10 7 0 10 6 7 14 -5
13 31 56 47 56 6 0 19 9 51 38 7 6 16 12 20 12 8 0 69 43 73 53 2 4 10 7 18 7
8 0 17 7 20 15 4 8 10 12 15 9 5 -3 9 0 9 5 0 6 7 11 15 11 8 0 15 5 15 10 0
6 7 10 15 10 8 0 15 4 15 9 0 5 16 16 35 25 19 9 35 21 35 26 0 6 7 10 15 10
8 0 15 5 15 11 0 5 5 7 10 4 6 -3 13 1 16 9 3 9 12 16 20 16 7 0 17 6 21 13 8
12 35 31 63 44 8 4 20 14 27 22 7 9 13 12 13 6 0 -6 3 -6 8 0 4 6 34 28 67 50
60 39 73 49 100 73 8 7 15 11 15 8 0 -3 8 1 18 9 9 8 20 15 25 15 4 0 16 8 26
18 32 28 46 39 72 52 13 7 26 16 29 19 3 4 32 24 65 46 33 22 66 46 73 53 7 6
19 12 27 12 7 0 16 7 19 16 4 9 9 14 12 11 11 -10 31 17 27 35 -9 31 -29 27
-94 -18z"/>
<path d="M4456 3914 c-9 -8 -16 -12 -16 -7 0 4 -4 4 -8 -2 -11 -15 -99 -75
-110 -75 -5 0 -12 -7 -16 -15 -3 -8 -12 -15 -21 -15 -8 0 -15 -4 -15 -9 0 -5
-18 -18 -40 -29 -22 -10 -37 -21 -34 -24 2 -3 -9 -11 -26 -18 -16 -7 -30 -15
-30 -19 0 -4 -16 -15 -35 -25 -19 -11 -35 -23 -35 -28 0 -5 -4 -7 -9 -3 -5 3
-13 1 -16 -5 -9 -15 -248 -175 -257 -172 -5 1 -8 -2 -8 -7 0 -5 -27 -26 -60
-46 -33 -20 -60 -41 -60 -46 0 -6 -4 -8 -8 -5 -5 3 -24 -8 -43 -25 -19 -16
-38 -29 -42 -29 -5 0 -15 -6 -22 -12 -32 -29 -45 -38 -78 -56 -19 -10 -42 -25
-50 -33 -35 -31 -45 -38 -51 -32 -3 4 -6 1 -6 -5 0 -7 -6 -12 -14 -12 -8 0
-16 -7 -20 -15 -3 -8 -12 -15 -20 -15 -8 0 -21 -7 -29 -15 -22 -21 -207 -145
-218 -145 -5 0 -9 -5 -9 -10 0 -6 -16 -18 -35 -27 -19 -9 -35 -20 -35 -25 0
-4 -7 -8 -15 -8 -8 0 -15 -4 -15 -10 0 -5 -6 -10 -14 -10 -8 0 -16 -7 -20 -15
-3 -8 -12 -15 -21 -15 -8 0 -15 -5 -15 -11 0 -5 -4 -7 -10 -4 -5 3 -10 1 -10
-4 0 -6 -5 -11 -10 -11 -11 0 -24 -9 -60 -42 -10 -9 -20 -14 -23 -12 -2 2 -10
-2 -17 -11 -7 -8 -19 -15 -27 -15 -8 0 -12 -4 -9 -8 3 -4 -12 -17 -32 -27 -20
-11 -39 -22 -42 -25 -3 -3 -16 -13 -30 -22 -14 -10 -44 -31 -68 -48 -23 -16
-47 -30 -52 -30 -6 0 -10 -5 -10 -11 0 -5 -4 -7 -10 -4 -5 3 -10 2 -10 -3 0
-5 -30 -29 -67 -54 -122 -80 -198 -133 -201 -140 -2 -5 -10 -8 -18 -8 -8 0
-14 -5 -14 -12 0 -6 -3 -8 -6 -5 -4 4 -15 -3 -25 -15 -11 -11 -19 -17 -19 -12
0 5 -4 5 -8 -1 -9 -13 -69 -55 -78 -55 -4 0 -15 -9 -25 -21 -9 -11 -20 -20
-24 -19 -10 2 -105 -63 -105 -72 0 -5 -4 -7 -9 -4 -5 4 -11 3 -13 -1 -1 -5
-37 -30 -78 -58 -41 -27 -77 -52 -80 -55 -3 -3 -28 -20 -56 -38 -44 -28 -67
-62 -42 -62 5 0 7 -4 4 -9 -4 -5 0 -11 6 -14 8 -2 1 -10 -14 -17 -16 -7 -28
-17 -28 -21 0 -4 -8 -10 -18 -13 -10 -4 -29 -16 -43 -29 -13 -12 -27 -22 -30
-22 -4 0 -19 -10 -32 -22 -14 -12 -28 -18 -32 -15 -4 4 -5 -2 -1 -13 3 -11 1
-27 -4 -35 -5 -8 -10 -10 -10 -5 0 7 -3 7 -8 0 -4 -5 -29 -26 -57 -45 -27 -19
-51 -38 -53 -42 -2 -4 -8 -8 -13 -8 -12 0 -101 -61 -116 -80 -7 -8 -13 -11
-13 -7 0 5 -7 1 -16 -7 -8 -9 -20 -13 -26 -10 -6 4 -8 2 -5 -3 6 -9 -61 -59
-71 -54 -1 1 -14 -11 -27 -25 -21 -22 -23 -30 -13 -43 7 -9 13 -17 14 -19 1
-2 12 7 24 20 13 13 19 16 15 8 -9 -15 33 15 47 35 4 6 8 6 8 2 0 -5 7 -2 15
6 8 8 30 25 50 37 19 12 35 27 35 32 0 6 3 8 6 5 4 -4 24 7 45 24 22 17 39 28
39 24 0 -3 12 6 28 20 15 14 35 28 45 31 9 3 17 10 17 15 0 5 6 9 14 9 8 0 17
7 20 16 3 8 10 12 16 9 5 -3 10 -1 10 5 0 6 5 8 10 5 6 -3 13 1 16 9 3 8 21
24 40 35 19 11 40 25 47 31 28 25 133 97 150 103 9 3 17 11 17 17 0 5 6 10 13
10 8 0 22 9 32 20 10 11 22 17 26 14 5 -3 12 1 15 9 3 9 19 21 35 27 16 7 29
17 29 23 0 6 3 8 6 5 3 -4 14 2 25 13 10 10 25 19 33 19 8 0 16 7 20 15 3 8
12 15 20 15 7 0 17 7 20 16 3 8 10 13 15 9 5 -3 16 4 24 15 7 11 17 17 20 13
4 -3 7 -1 7 5 0 7 7 12 15 12 9 0 18 7 21 15 4 8 10 12 15 9 5 -3 9 0 9 7 0 7
3 10 6 7 3 -3 17 5 31 18 14 13 30 24 35 24 5 0 16 6 23 13 34 30 43 35 49 30
3 -3 8 2 12 11 3 9 12 16 20 16 8 0 14 5 14 10 0 6 5 10 11 10 6 0 17 7 26 15
8 8 19 13 24 9 5 -3 8 0 7 8 -2 7 3 12 10 10 6 -1 12 2 12 8 0 5 7 10 15 10 8
0 15 4 15 8 0 5 18 18 40 31 22 12 40 27 40 32 0 6 5 7 10 4 6 -3 10 -1 10 4
0 6 7 11 15 11 8 0 15 5 15 11 0 5 4 8 9 5 5 -3 11 1 15 9 3 8 10 15 16 15 6
0 18 7 27 15 8 8 19 12 25 9 7 -4 8 -2 4 4 -4 7 -1 12 8 12 9 0 16 4 16 8 0 8
63 48 68 43 2 -1 9 4 15 12 17 20 115 87 128 87 5 0 7 5 4 10 -3 6 3 10 13 10
11 0 22 7 26 15 3 8 12 15 20 15 8 0 16 3 18 8 3 8 64 52 73 52 2 0 16 10 31
23 14 12 30 22 35 22 5 0 14 7 19 15 5 8 10 11 10 5 0 -6 4 -5 8 1 4 6 28 25
54 41 26 17 44 34 40 38 -4 5 1 5 12 1 17 -6 18 -3 13 30 -6 33 8 64 28 64 3
0 11 5 18 10 45 38 61 50 67 50 3 0 15 8 26 18 10 10 22 18 25 18 19 -2 101
73 94 85 -3 4 39 38 92 75 54 37 101 73 105 78 4 6 8 7 8 3 0 -5 14 3 31 17
17 14 34 26 38 26 4 0 19 9 32 20 13 11 29 23 34 28 6 4 18 11 28 15 9 3 17
11 17 17 0 6 5 8 10 5 6 -3 10 -1 10 4 0 6 7 11 15 11 9 0 18 7 22 16 3 8 12
13 19 10 8 -3 14 -2 14 3 0 9 101 80 113 80 5 0 14 6 20 14 7 8 62 47 122 88
61 40 115 80 122 89 7 8 13 11 13 7 0 -5 18 5 39 22 21 17 44 31 50 31 6 0 11
4 11 9 0 5 9 13 20 16 27 9 28 55 1 55 -11 0 -27 -7 -35 -16z"/>
<path d="M4450 3679 c-8 -10 -17 -16 -22 -13 -4 3 -11 -2 -14 -10 -3 -9 -12
-16 -20 -16 -8 0 -14 -5 -14 -11 0 -5 -5 -7 -10 -4 -6 3 -13 -1 -16 -9 -3 -9
-12 -16 -20 -16 -8 0 -14 -5 -14 -11 0 -5 -4 -8 -9 -4 -6 3 -13 -1 -18 -8 -4
-7 -32 -28 -60 -47 -29 -18 -53 -37 -53 -42 0 -5 -4 -7 -8 -4 -5 3 -18 -4 -30
-14 -12 -11 -24 -20 -27 -20 -3 0 -15 -9 -27 -20 -12 -11 -28 -20 -35 -20 -7
0 -13 -4 -13 -10 0 -5 -7 -10 -15 -10 -8 0 -15 -4 -15 -8 0 -5 -11 -14 -25
-20 -14 -7 -31 -16 -38 -22 -60 -49 -77 -60 -93 -60 -9 0 -14 -3 -11 -6 4 -4
-19 -23 -51 -42 -31 -20 -61 -42 -65 -49 -4 -7 -13 -13 -20 -13 -7 0 -28 -14
-47 -30 -19 -16 -41 -30 -48 -30 -7 0 -15 -7 -18 -15 -4 -8 -12 -15 -19 -15
-8 0 -20 -6 -28 -14 -7 -8 -40 -31 -73 -52 -32 -20 -61 -40 -64 -44 -3 -4 -16
-13 -29 -20 -26 -13 -40 -24 -72 -52 -10 -10 -19 -16 -19 -13 0 3 -35 -19 -79
-50 -43 -30 -83 -55 -89 -55 -5 0 -12 -7 -16 -15 -3 -8 -12 -15 -21 -15 -8 0
-15 -4 -15 -9 0 -5 -16 -16 -35 -25 -20 -10 -33 -22 -29 -27 3 -5 2 -8 -3 -7
-12 4 -83 -42 -83 -53 0 -6 -4 -8 -9 -5 -7 5 -40 -17 -103 -69 -10 -8 -18 -12
-18 -9 0 3 -18 -9 -40 -26 -22 -17 -40 -28 -40 -23 0 4 -4 3 -8 -2 -15 -21
-89 -74 -95 -68 -4 3 -9 -2 -13 -11 -3 -9 -11 -16 -18 -16 -6 0 -24 -11 -40
-25 -16 -13 -37 -27 -47 -30 -11 -4 -19 -11 -19 -16 0 -5 -7 -9 -16 -9 -9 0
-12 -5 -8 -12 5 -7 2 -9 -8 -6 -8 4 -20 -2 -27 -13 -6 -11 -16 -17 -21 -14 -6
3 -10 1 -10 -4 0 -6 -6 -10 -12 -9 -7 2 -12 -3 -10 -9 2 -11 -12 -18 -21 -10
-2 1 -10 -5 -18 -13 -9 -8 -76 -55 -150 -105 -135 -91 -158 -108 -187 -135 -9
-8 -18 -14 -21 -12 -3 1 -19 -8 -36 -20 -16 -13 -33 -22 -37 -20 -5 1 -8 -2
-8 -8 0 -5 -7 -10 -15 -10 -8 0 -15 -3 -15 -7 0 -5 -21 -21 -45 -38 -25 -16
-45 -34 -45 -38 0 -5 -4 -6 -9 -3 -5 3 -14 -1 -21 -9 -7 -8 -17 -12 -22 -9
-12 8 -6 -38 6 -47 4 -4 3 -15 -3 -25 -6 -11 -11 -14 -11 -9 0 6 -3 6 -8 -1
-4 -5 -36 -30 -72 -55 -36 -24 -68 -48 -72 -54 -4 -5 -12 -10 -18 -10 -14 0
-29 -25 -24 -39 3 -11 -68 -66 -85 -66 -5 0 -11 -7 -15 -15 -3 -8 -12 -15 -20
-15 -7 0 -16 -7 -20 -15 -3 -8 -9 -14 -14 -13 -4 2 -21 -7 -38 -19 -92 -70
-124 -92 -124 -86 0 3 -9 -4 -20 -17 -11 -13 -20 -20 -20 -16 0 4 -6 2 -12 -4
-7 -5 -25 -19 -40 -31 -34 -25 -35 -35 -6 -50 16 -9 23 -9 26 0 2 6 10 11 17
11 7 0 16 7 19 16 3 8 10 12 16 9 5 -3 10 -1 10 6 0 7 3 10 6 7 3 -3 19 7 37
23 17 16 33 27 35 25 2 -2 17 9 34 25 17 15 35 26 39 23 4 -2 9 0 11 4 3 8 35
32 173 126 17 12 32 24 33 29 2 4 8 7 13 7 11 0 122 81 127 93 2 4 9 7 15 7 7
0 25 11 41 25 16 14 33 25 37 25 5 0 17 10 29 22 11 12 20 18 20 14 0 -4 7 0
16 8 8 9 20 14 25 11 5 -4 9 1 9 10 0 9 5 13 10 10 6 -3 10 -1 10 4 0 6 7 11
15 11 8 0 15 4 15 8 0 5 12 15 27 23 28 14 53 33 79 57 8 7 14 10 14 7 0 -6
21 9 78 56 6 5 12 7 12 2 0 -4 7 2 15 13 8 10 15 15 15 11 0 -4 12 3 27 17 15
14 30 23 35 20 4 -3 8 0 8 6 0 6 5 8 10 5 6 -3 10 1 10 9 0 9 6 16 14 16 7 0
19 7 26 15 7 8 16 13 20 10 4 -3 10 2 14 10 3 8 12 15 21 15 8 0 15 4 15 9 0
7 94 71 105 71 2 0 16 11 30 24 14 13 41 32 60 41 19 9 35 20 35 25 0 6 5 10
11 10 6 0 17 7 26 15 8 8 19 12 25 9 7 -4 8 -2 4 4 -4 7 -2 12 3 12 6 0 13 0
16 0 3 0 13 8 23 18 38 35 60 50 66 45 3 -4 6 -2 6 3 0 5 16 18 35 28 19 11
35 23 35 28 0 4 5 8 11 8 8 0 72 43 114 78 6 5 17 6 24 4 8 -3 11 0 8 5 -4 6
9 19 28 29 19 10 35 22 35 26 0 5 4 8 9 8 14 0 91 53 91 62 0 5 5 6 10 3 6 -3
10 -1 10 4 0 6 7 11 15 11 8 0 15 4 15 9 0 5 8 12 18 15 9 3 30 18 45 32 23
21 26 28 15 35 -7 5 -13 14 -13 21 0 13 36 48 49 48 4 0 16 9 28 20 12 10 25
17 30 14 4 -3 8 2 8 11 0 9 4 14 9 11 5 -3 19 4 33 17 13 12 28 24 33 26 16 7
89 55 103 68 7 7 11 17 8 21 -3 5 6 20 21 33 14 13 23 17 18 9 -4 -8 1 -6 12
5 10 11 56 45 101 74 45 30 82 59 82 64 0 4 4 6 9 3 5 -3 14 1 21 9 7 8 19 15
27 15 8 0 12 4 9 9 -6 9 31 25 49 21 5 -1 7 2 3 6 -4 4 63 54 150 112 86 57
163 111 170 120 6 9 12 12 12 8 0 -4 17 5 38 21 20 15 76 55 124 87 57 38 85
63 81 72 -3 8 -8 14 -12 15 -3 0 -13 2 -22 4 -9 1 -22 -5 -29 -16z"/>
<path d="M4475 3472 c4 -7 -3 -16 -17 -21 -13 -5 -33 -18 -44 -29 -12 -12 -25
-18 -28 -15 -3 4 -6 1 -6 -5 0 -7 -5 -12 -11 -12 -6 0 -17 -6 -24 -12 -33 -30
-45 -38 -55 -38 -5 0 -10 -5 -10 -11 0 -5 -5 -7 -10 -4 -6 3 -13 -1 -16 -9 -3
-9 -12 -16 -20 -16 -8 0 -14 -4 -14 -10 0 -5 -5 -10 -10 -10 -6 0 -20 -9 -32
-20 -12 -11 -27 -20 -34 -20 -6 0 -14 -7 -18 -15 -3 -8 -12 -15 -19 -15 -8 0
-22 -9 -32 -20 -10 -11 -21 -17 -25 -15 -4 3 -10 -2 -14 -10 -3 -8 -12 -15
-21 -15 -8 0 -15 -5 -15 -12 0 -6 -3 -9 -6 -5 -3 3 -15 -2 -26 -11 -11 -9 -29
-25 -40 -34 -12 -10 -27 -18 -35 -18 -7 0 -16 -7 -19 -15 -4 -8 -12 -15 -20
-15 -8 0 -14 -4 -14 -9 0 -5 -13 -14 -30 -21 -16 -7 -30 -16 -30 -21 0 -5 -6
-9 -14 -9 -8 0 -16 -4 -18 -8 -1 -4 -43 -35 -93 -67 -49 -33 -93 -64 -97 -70
-5 -6 -8 -6 -8 0 0 6 -5 2 -11 -8 -6 -9 -14 -15 -20 -12 -5 4 -9 2 -9 -4 0 -5
-18 -20 -40 -32 -22 -13 -40 -26 -40 -31 0 -4 -5 -8 -11 -8 -6 0 -29 -14 -50
-31 -21 -17 -39 -27 -39 -22 0 4 -5 0 -11 -9 -5 -10 -17 -18 -24 -18 -8 0 -15
-4 -15 -10 0 -5 -6 -10 -14 -10 -8 0 -17 -7 -20 -16 -3 -8 -10 -12 -16 -9 -5
3 -10 1 -10 -4 0 -6 -6 -11 -14 -11 -8 0 -17 -7 -20 -16 -4 -9 -9 -14 -12 -11
-6 6 -9 5 -65 -43 -20 -16 -41 -30 -47 -30 -6 0 -16 -8 -21 -17 -6 -10 -11
-15 -11 -10 0 9 -190 -120 -207 -142 -7 -8 -13 -11 -13 -7 0 4 -18 -7 -40 -24
-22 -17 -40 -28 -40 -24 0 4 -9 -3 -20 -16 -11 -13 -20 -20 -20 -16 0 4 -17
-5 -37 -21 -43 -33 -97 -68 -100 -65 -2 1 -12 -6 -22 -15 -37 -33 -50 -43 -61
-43 -5 0 -10 -5 -10 -11 0 -5 -4 -7 -10 -4 -6 3 -10 2 -10 -4 0 -5 -9 -13 -20
-16 -11 -4 -18 -11 -15 -16 4 -5 0 -9 -9 -9 -8 0 -35 -16 -60 -35 -25 -19 -46
-32 -46 -27 0 4 -4 2 -8 -4 -4 -6 -29 -26 -57 -44 -27 -19 -56 -40 -63 -47 -7
-7 -20 -13 -28 -13 -8 0 -17 -7 -20 -15 -4 -8 -10 -15 -16 -15 -5 0 -16 -7
-25 -15 -8 -8 -19 -13 -24 -10 -5 4 -9 -1 -9 -9 0 -9 -3 -15 -7 -14 -9 3 -53
-26 -84 -54 -10 -10 -22 -18 -26 -18 -5 0 -16 -7 -25 -15 -10 -8 -18 -12 -18
-10 0 3 -10 -3 -22 -14 -11 -11 -26 -18 -31 -14 -6 3 -7 1 -3 -5 4 -7 2 -12
-3 -12 -17 0 -13 -31 6 -47 10 -8 12 -12 6 -8 -8 4 -13 0 -13 -9 0 -9 -3 -15
-7 -14 -9 3 -85 -46 -121 -77 -13 -11 -26 -19 -29 -17 -8 5 -32 -32 -33 -50 0
-10 -4 -18 -8 -18 -8 0 -27 -13 -83 -58 -16 -13 -29 -21 -29 -18 0 3 -9 -2
-19 -11 -33 -30 -50 -43 -56 -43 -3 0 -11 -5 -18 -10 -29 -25 -106 -80 -111
-80 -9 0 -100 -71 -107 -84 -7 -11 14 -38 28 -35 5 1 24 14 44 30 20 16 41 29
45 29 5 0 24 14 42 31 17 16 32 27 32 23 0 -4 14 5 30 21 17 16 30 25 30 19 0
-5 5 -1 11 9 5 9 15 17 20 17 6 0 17 6 24 13 33 29 45 37 54 37 5 0 12 7 15
16 3 8 10 12 16 9 5 -3 10 -1 10 4 0 6 5 11 10 11 6 0 16 5 23 10 55 47 72 58
79 54 4 -3 8 -1 8 4 0 8 104 84 160 117 10 6 25 17 34 24 9 7 16 10 16 5 0 -5
7 2 16 14 8 12 21 22 27 22 7 0 25 11 41 25 16 14 35 25 41 25 7 0 15 7 19 15
3 8 13 15 21 15 10 0 13 5 9 12 -4 6 -3 8 4 4 6 -3 22 4 35 17 14 12 38 29 54
37 15 8 33 22 40 30 7 8 13 11 13 6 0 -6 7 -1 15 10 8 10 15 16 15 12 0 -4 12
4 26 17 15 14 30 22 35 19 5 -3 9 2 9 11 0 9 4 14 9 10 6 -3 13 0 18 7 4 7 14
13 21 13 6 0 12 4 11 9 0 5 19 20 43 34 24 14 46 30 50 36 4 6 8 7 8 3 0 -4 6
-3 13 3 26 24 167 119 167 114 0 -3 7 1 15 9 8 8 30 25 50 37 19 12 35 26 35
31 0 5 3 8 8 7 8 -3 136 82 140 94 2 4 8 6 13 2 5 -3 12 2 15 10 3 9 12 16 20
16 8 0 14 5 14 11 0 5 4 8 9 4 6 -3 14 3 20 12 6 10 11 14 11 10 0 -4 6 -3 13
3 54 46 74 60 83 60 7 0 15 7 18 16 4 9 9 14 12 11 4 -3 12 -1 19 6 7 7 21 18
31 24 11 7 37 25 59 40 180 121 175 116 149 144 -12 13 -10 18 14 36 15 11 30
19 33 19 3 -1 18 13 33 29 15 17 31 29 34 28 15 -4 131 83 132 98 0 14 59 69
74 69 3 0 29 18 58 40 29 22 59 40 66 40 7 0 11 4 8 9 -3 5 5 12 19 15 13 3
29 15 35 26 6 11 15 18 21 15 5 -4 9 -1 9 5 0 6 5 8 10 5 6 -3 10 -1 10 6 0 7
3 10 6 7 3 -3 16 4 29 16 13 12 36 28 52 36 15 8 33 20 38 25 6 6 37 28 70 50
33 22 77 52 98 68 20 16 37 26 37 23 0 -3 10 3 23 14 12 10 25 19 30 20 4 0
16 8 26 18 33 29 50 42 56 42 4 0 13 6 20 13 33 28 43 36 47 31 3 -2 5 3 5 11
0 8 -5 15 -10 15 -5 0 -16 8 -24 18 -8 9 -12 11 -8 4z"/>
<path d="M4462 3218 c-7 -7 -12 -8 -12 -3 0 4 -9 -2 -20 -15 -11 -13 -20 -19
-20 -14 0 5 -7 0 -15 -10 -8 -11 -15 -16 -15 -12 0 4 -17 -6 -37 -23 -20 -16
-40 -28 -45 -25 -4 3 -8 1 -8 -4 0 -10 -69 -58 -84 -60 -5 0 -12 -5 -15 -10
-3 -5 -22 -19 -41 -31 -19 -11 -30 -21 -25 -21 6 0 -4 -7 -21 -16 -18 -8 -41
-24 -53 -35 -11 -11 -21 -17 -21 -14 0 4 -17 -6 -37 -22 -48 -37 -121 -83
-129 -82 -3 0 -14 -9 -23 -20 -10 -12 -21 -21 -25 -21 -9 0 -69 -42 -78 -55
-5 -7 -8 -7 -8 0 0 6 -3 6 -8 0 -10 -15 -141 -105 -152 -105 -4 0 -10 -3 -12
-7 -4 -11 -75 -63 -85 -63 -5 0 -16 -9 -26 -20 -9 -11 -23 -20 -32 -20 -8 0
-19 -9 -25 -20 -6 -11 -15 -18 -21 -15 -5 4 -9 1 -9 -6 0 -7 -3 -10 -6 -6 -6
6 -24 -6 -52 -35 -9 -10 -22 -18 -28 -18 -6 0 -17 -7 -24 -15 -7 -8 -16 -13
-20 -10 -4 3 -10 -2 -14 -10 -3 -8 -13 -15 -21 -15 -10 0 -13 -5 -9 -12 5 -7
2 -9 -9 -5 -9 3 -18 0 -21 -9 -3 -8 -13 -14 -21 -14 -9 0 -13 -4 -10 -10 3 -5
0 -10 -8 -10 -7 0 -24 -10 -37 -22 -14 -13 -26 -22 -27 -20 -8 7 -23 1 -18 -8
3 -5 -1 -10 -9 -10 -9 0 -25 -9 -36 -20 -11 -11 -27 -20 -36 -20 -8 0 -13 -4
-10 -9 4 -6 -42 -36 -52 -32 -1 1 -12 -8 -25 -19 -12 -12 -38 -31 -57 -43 -19
-11 -37 -24 -40 -28 -3 -3 -20 -14 -37 -23 -18 -9 -33 -21 -33 -26 0 -6 -5
-10 -10 -10 -12 0 -86 -47 -114 -72 -10 -10 -22 -15 -26 -13 -5 3 -10 -2 -14
-10 -3 -8 -13 -15 -21 -15 -9 0 -13 -4 -10 -10 3 -5 0 -10 -8 -10 -8 0 -20 -7
-27 -15 -7 -8 -16 -13 -20 -10 -5 3 -10 2 -12 -2 -4 -11 -81 -68 -91 -68 -4 0
-11 -4 -15 -10 -8 -11 -38 -31 -62 -42 -8 -3 -19 -13 -23 -20 -5 -7 -12 -11
-17 -8 -4 3 -10 -2 -14 -10 -3 -8 -12 -15 -20 -15 -8 0 -16 -3 -18 -7 -5 -11
-66 -53 -77 -53 -5 0 -11 -4 -13 -8 -4 -10 -96 -72 -108 -72 -4 0 -10 -3 -12
-8 -1 -4 -15 -17 -30 -28 -26 -21 -27 -22 -9 -40 17 -18 17 -20 -3 -37 -12
-11 -33 -25 -48 -33 -16 -8 -28 -19 -28 -24 0 -5 -11 -12 -25 -16 -14 -3 -30
-15 -36 -25 -5 -11 -14 -17 -20 -14 -5 4 -9 1 -9 -6 0 -7 -3 -10 -6 -6 -3 3
-18 -5 -32 -19 -15 -13 -30 -24 -34 -24 -4 0 -5 -6 -2 -13 2 -7 -9 -26 -26
-42 -16 -16 -30 -25 -30 -20 0 5 -9 0 -20 -11 -32 -31 -49 -44 -60 -44 -5 0
-10 -4 -10 -10 0 -5 -3 -9 -8 -7 -4 1 -14 -4 -22 -11 -37 -31 -147 -109 -162
-115 -10 -3 -18 -13 -18 -20 0 -19 30 -43 38 -31 4 5 19 15 35 23 15 8 27 18
27 23 0 4 7 8 15 8 8 0 15 5 15 10 0 6 6 10 14 10 8 0 16 4 18 8 4 10 155 113
164 112 3 -1 14 10 25 25 12 14 24 23 29 20 5 -3 10 -1 12 3 1 5 37 32 78 60
41 29 85 59 97 68 12 9 25 16 30 16 4 0 14 9 21 19 7 11 20 19 28 19 8 0 14 4
14 10 0 5 16 17 35 26 19 9 35 20 35 25 0 5 7 9 15 9 8 0 15 5 15 10 0 6 7 10
15 10 9 0 18 7 21 15 4 8 12 15 19 15 7 0 24 9 37 20 12 11 59 44 103 72 44
29 84 58 88 65 5 8 12 11 16 9 4 -3 19 5 32 17 13 12 27 21 31 19 5 -1 8 2 8
8 0 5 6 10 14 10 8 0 17 7 20 16 3 8 10 12 16 9 5 -3 10 -1 10 4 0 6 7 11 15
11 8 0 15 3 15 8 0 4 12 16 27 26 16 12 23 14 18 5 -4 -8 2 -4 13 8 12 12 31
24 42 28 11 4 18 10 15 15 -4 6 18 18 47 24 3 0 10 5 15 10 5 5 2 6 -6 1 -9
-5 -12 -4 -7 3 4 7 13 12 21 12 7 0 20 6 27 13 7 6 47 34 88 62 41 27 83 57
93 67 10 10 24 18 31 18 8 0 16 7 20 15 3 8 9 14 13 13 4 -2 24 9 44 25 20 15
41 27 47 27 7 0 12 4 12 10 0 5 16 17 35 26 19 9 35 20 35 25 0 5 6 9 13 9 7
0 24 11 39 25 15 14 32 25 38 25 5 0 10 5 10 11 0 5 5 7 10 4 6 -3 10 -2 10 4
0 5 9 13 20 16 11 4 32 17 47 31 14 13 28 22 30 20 2 -2 15 6 28 18 13 12 36
28 52 36 15 8 39 25 53 38 14 12 28 22 31 22 11 0 20 31 12 43 -14 23 -10 32
24 54 19 13 31 17 28 10 -4 -6 -1 -5 7 3 26 31 71 60 82 53 6 -3 8 -2 3 2 -4
5 11 19 33 32 36 22 45 34 38 48 -4 5 54 54 65 54 4 0 15 8 24 16 22 23 190
135 202 135 5 0 11 7 15 15 3 8 12 15 20 15 7 0 17 7 20 16 3 8 10 13 15 9 5
-3 17 5 25 17 9 12 16 19 16 15 0 -5 15 3 33 17 19 15 38 26 44 26 5 0 20 11
33 25 13 14 26 23 28 20 3 -3 12 4 19 15 8 11 19 18 24 15 5 -4 12 1 15 9 3 9
12 16 20 16 8 0 14 4 14 8 0 5 18 17 40 27 22 10 37 21 35 26 -3 4 0 9 7 11
15 5 3 38 -15 38 -7 0 -18 -5 -25 -12z"/>
<path d="M4425 2965 c-27 -18 -54 -37 -60 -42 -5 -4 -30 -21 -55 -37 -25 -16
-56 -38 -69 -50 -13 -11 -20 -14 -16 -6 5 8 -4 3 -19 -12 -16 -15 -37 -30 -47
-33 -10 -4 -19 -10 -19 -14 0 -5 -13 -14 -30 -21 -16 -7 -27 -17 -23 -23 3 -5
1 -7 -5 -3 -6 3 -17 -1 -25 -9 -9 -8 -18 -15 -22 -15 -3 0 -22 -12 -41 -27
-18 -16 -36 -27 -39 -26 -2 1 -16 -8 -31 -22 -14 -13 -39 -30 -54 -37 -16 -7
-26 -16 -24 -20 3 -4 -1 -8 -9 -8 -8 0 -26 -11 -41 -25 -14 -13 -29 -24 -32
-24 -6 1 -75 -47 -98 -68 -8 -7 -16 -9 -20 -6 -3 4 -6 1 -6 -6 0 -7 -4 -10 -9
-7 -5 4 -11 3 -13 -2 -5 -11 -107 -82 -119 -82 -5 0 -8 -4 -4 -9 3 -5 -11 -15
-30 -22 -19 -7 -35 -16 -35 -19 0 -8 -94 -70 -105 -70 -4 0 -15 -8 -24 -17 -9
-10 -83 -63 -166 -118 -82 -54 -151 -103 -153 -107 -2 -4 -9 -8 -15 -8 -7 0
-24 -11 -39 -25 -15 -14 -34 -25 -43 -25 -8 0 -15 -4 -15 -9 0 -7 -100 -80
-125 -90 -5 -2 -15 -9 -22 -15 -30 -27 -43 -36 -48 -36 -8 0 -69 -44 -73 -52
-2 -5 -10 -8 -18 -8 -8 0 -14 -4 -14 -8 0 -4 -22 -21 -50 -37 -27 -16 -50 -33
-50 -37 0 -4 -6 -8 -13 -8 -7 0 -24 -11 -39 -24 -14 -14 -29 -22 -32 -19 -3 4
-14 -3 -23 -13 -23 -25 -95 -70 -107 -66 -5 2 -2 -8 8 -22 9 -14 16 -27 16
-30 0 -8 -48 -57 -57 -58 -15 -2 -83 -51 -83 -60 0 -5 -4 -7 -8 -4 -5 3 -20
-6 -35 -20 -15 -14 -27 -21 -27 -17 0 4 -7 -1 -15 -11 -8 -11 -15 -17 -15 -13
0 5 -7 2 -15 -5 -38 -31 -55 -53 -51 -64 2 -6 -6 -16 -20 -23 -13 -6 -24 -15
-24 -21 0 -6 -4 -9 -9 -6 -5 4 -11 3 -13 -2 -1 -4 -41 -34 -88 -66 -47 -32
-96 -68 -109 -80 -13 -11 -20 -14 -16 -6 5 8 -5 2 -23 -15 -18 -16 -36 -30
-40 -30 -4 0 -18 -10 -31 -22 -14 -13 -33 -25 -43 -29 -10 -3 -18 -10 -18 -15
0 -6 -4 -7 -10 -4 -5 3 -10 1 -10 -4 0 -6 -7 -11 -16 -11 -8 0 -13 -4 -10 -9
4 -5 0 -11 -6 -14 -10 -3 -10 -7 0 -19 12 -15 50 -14 62 2 3 3 27 22 55 41 27
18 56 40 63 46 7 7 17 13 22 13 5 0 23 13 41 30 18 16 35 28 37 26 3 -4 28 14
57 42 8 6 17 12 20 12 4 0 24 14 45 30 21 17 43 30 49 30 6 0 11 3 11 8 0 4
21 20 48 37 51 32 64 41 92 67 10 9 21 14 24 11 3 -3 8 2 12 11 3 9 12 16 20
16 8 0 14 5 14 11 0 5 4 8 8 5 5 -3 16 3 25 12 16 18 33 31 59 47 47 29 164
111 170 120 5 6 8 7 8 0 0 -6 3 -6 8 1 4 6 36 30 72 54 36 24 68 48 72 54 5 7
8 7 8 1 0 -6 3 -6 8 1 4 5 50 38 102 73 52 35 107 74 122 87 16 13 31 24 35
25 5 0 48 28 97 62 48 34 96 67 105 72 9 6 33 23 53 38 21 16 38 25 38 21 0
-4 7 1 15 12 8 10 15 15 15 11 0 -5 7 -2 15 5 23 21 35 30 120 87 44 30 82 58
83 63 2 4 8 8 14 8 5 0 47 26 91 57 45 32 86 58 90 58 5 0 15 9 23 19 8 11 14
16 14 10 0 -5 6 -2 13 6 7 8 24 21 40 29 25 13 26 16 13 36 -18 28 -10 41 48
74 25 15 44 30 40 33 -3 4 5 9 17 13 13 4 29 13 36 19 31 28 43 36 43 31 0 -2
9 3 20 13 12 9 23 16 26 14 9 -5 33 31 34 48 0 13 49 52 119 95 9 6 19 15 23
20 5 6 8 6 8 1 0 -6 9 0 20 12 12 12 25 22 30 22 5 0 15 6 22 13 20 19 108 77
118 77 4 0 10 4 12 9 4 10 138 102 138 95 0 -3 14 8 32 25 27 25 30 32 19 45
-18 21 -18 21 -76 -19z"/>
<path d="M4460 2738 c0 -6 -3 -8 -6 -5 -4 4 -22 -7 -41 -23 -18 -17 -40 -30
-48 -30 -8 0 -15 -4 -15 -9 0 -11 -64 -52 -86 -55 -8 -1 -24 -10 -34 -19 -11
-9 -20 -14 -20 -12 0 3 -6 1 -12 -5 -29 -25 -169 -120 -177 -120 -5 0 -11 -7
-15 -15 -3 -8 -10 -15 -16 -15 -12 0 -112 -67 -121 -82 -3 -5 -9 -9 -13 -9
-20 3 -26 0 -21 -9 3 -5 0 -10 -8 -10 -7 0 -23 -9 -34 -19 -12 -11 -23 -17
-27 -14 -3 3 -8 -2 -12 -11 -3 -9 -10 -13 -15 -10 -5 3 -12 -2 -15 -10 -3 -9
-10 -13 -15 -10 -5 3 -9 1 -9 -4 0 -4 -18 -18 -40 -31 -22 -12 -40 -27 -40
-32 0 -6 -4 -8 -9 -5 -5 4 -11 3 -13 -2 -1 -4 -21 -19 -43 -32 -43 -26 -56
-36 -86 -62 -10 -10 -19 -15 -19 -10 0 4 -6 0 -13 -8 -7 -8 -19 -16 -27 -18
-8 -2 -19 -10 -23 -18 -4 -8 -14 -14 -20 -14 -7 0 -20 -9 -30 -20 -9 -11 -23
-20 -31 -20 -8 0 -17 -7 -20 -16 -3 -8 -10 -13 -15 -9 -6 3 -13 -1 -18 -8 -4
-7 -24 -22 -43 -33 -42 -23 -56 -34 -77 -56 -9 -9 -20 -15 -25 -12 -4 3 -8 0
-8 -5 0 -6 -7 -11 -15 -11 -8 0 -15 -4 -15 -10 0 -5 -6 -10 -14 -10 -8 0 -22
-10 -31 -22 -8 -13 -17 -21 -20 -18 -2 3 -15 -4 -27 -15 -13 -10 -24 -18 -26
-17 -1 1 -12 -7 -24 -17 -11 -11 -25 -18 -30 -15 -4 3 -8 0 -8 -6 0 -6 -4 -8
-10 -5 -5 3 -10 -1 -10 -9 0 -8 -10 -18 -22 -22 -13 -4 -25 -10 -28 -14 -11
-14 -98 -69 -104 -65 -3 3 -4 2 -2 -1 7 -8 -92 -74 -113 -75 -9 0 -11 -3 -4
-5 7 -3 9 -12 6 -21 -3 -8 0 -19 7 -23 11 -7 11 -11 1 -24 -8 -9 -19 -16 -25
-16 -6 0 -18 -9 -26 -20 -8 -11 -19 -20 -25 -20 -6 0 -22 -11 -37 -24 -14 -14
-29 -22 -32 -19 -3 4 -6 1 -6 -5 0 -7 -7 -12 -15 -12 -7 0 -18 -6 -22 -12 -4
-7 -41 -35 -81 -62 -51 -34 -70 -52 -63 -60 7 -8 -3 -21 -34 -41 -25 -17 -45
-33 -45 -37 0 -5 -6 -8 -13 -8 -8 0 -22 -9 -32 -20 -10 -11 -22 -17 -26 -14
-5 3 -9 1 -9 -4 0 -8 -81 -68 -87 -64 -2 1 -14 -9 -28 -22 -14 -13 -40 -31
-58 -40 -18 -8 -40 -24 -50 -36 -10 -11 -22 -18 -27 -15 -6 3 -10 2 -10 -3 0
-6 -24 -25 -52 -43 -29 -19 -58 -38 -65 -44 -7 -5 -19 -16 -27 -22 -8 -7 -20
-13 -25 -13 -18 0 -31 -36 -19 -48 13 -13 45 -16 50 -4 4 9 130 100 176 127
17 11 32 23 32 27 0 4 4 8 10 8 8 0 67 39 125 82 75 56 105 77 105 71 0 -3 8
4 19 15 10 12 21 19 25 15 3 -3 6 -1 6 5 0 6 8 13 18 16 9 3 33 19 52 36 19
16 36 27 38 25 2 -2 12 4 22 13 37 34 48 41 54 35 3 -4 6 -2 6 4 0 10 70 62
103 75 9 4 17 12 17 18 0 5 7 10 15 10 8 0 15 5 15 11 0 5 4 8 8 5 5 -3 16 3
25 12 25 27 45 42 57 42 5 0 10 5 10 12 0 6 3 9 6 5 3 -3 17 4 31 16 13 12 26
21 29 20 2 -2 13 5 23 15 36 32 51 43 51 37 0 -4 6 0 14 7 26 25 56 48 56 43
0 -5 143 93 168 115 6 6 12 8 12 5 0 -6 13 4 49 35 9 8 29 22 45 30 15 8 38
24 51 36 13 12 26 20 28 18 2 -3 10 2 17 11 7 8 19 15 26 15 8 0 14 5 14 10 0
6 6 10 14 10 8 0 16 3 18 8 5 11 107 82 118 82 6 0 10 5 10 10 0 6 5 10 10 10
6 0 16 5 23 10 33 28 104 77 120 83 9 3 17 11 17 17 0 5 5 10 10 10 10 0 67
36 80 50 3 3 26 19 52 35 27 17 48 33 48 38 0 4 5 7 11 7 12 0 102 61 107 73
2 4 10 7 18 7 8 0 17 7 20 15 4 8 10 13 14 10 16 -10 22 17 9 41 -7 13 -10 26
-8 28 2 1 47 31 99 66 52 34 101 70 108 78 6 9 12 12 12 6 0 -5 3 -5 8 1 11
15 70 55 82 55 5 0 10 4 10 8 0 5 9 19 20 32 11 13 20 20 20 17 0 -4 9 1 19
11 40 36 56 47 63 45 5 -2 8 1 8 6 0 5 8 12 18 15 32 11 73 53 66 70 -7 18
-44 22 -44 4z"/>
<path d="M4460 2519 c0 -5 -5 -7 -10 -4 -6 3 -13 -1 -16 -9 -3 -9 -12 -16 -20
-16 -8 0 -14 -5 -14 -12 0 -6 -3 -9 -6 -5 -6 6 -17 -1 -54 -35 -10 -9 -21 -14
-24 -10 -3 3 -6 -1 -6 -8 0 -7 -3 -10 -6 -7 -4 4 -15 -3 -25 -14 -9 -11 -20
-19 -23 -17 -3 2 -15 -5 -26 -14 -11 -10 -22 -18 -25 -18 -3 0 -14 -8 -25 -17
-11 -10 -23 -16 -25 -13 -2 3 -10 -2 -17 -11 -7 -9 -57 -46 -110 -81 -54 -36
-96 -67 -93 -70 3 -2 -1 -5 -8 -5 -11 0 -70 -36 -87 -53 -3 -3 -17 -11 -32
-19 -16 -8 -28 -18 -28 -23 0 -4 -7 -8 -15 -8 -9 0 -18 -6 -21 -14 -3 -9 -13
-12 -22 -9 -9 4 -14 3 -10 -2 7 -8 -55 -55 -72 -55 -6 0 -10 -4 -10 -8 0 -5
-16 -17 -35 -28 -19 -10 -35 -23 -35 -28 0 -5 -3 -7 -6 -3 -5 5 -14 -1 -61
-43 -13 -11 -26 -21 -30 -21 -13 -3 -85 -50 -106 -70 -12 -10 -28 -21 -38 -24
-17 -6 -16 -45 2 -45 20 0 -7 -33 -47 -56 -24 -14 -44 -30 -44 -35 0 -5 -6 -9
-13 -9 -7 0 -22 -8 -33 -19 -11 -10 -31 -24 -44 -31 -25 -13 -39 -24 -70 -52
-10 -9 -21 -14 -24 -11 -3 3 -8 -2 -12 -11 -3 -9 -10 -13 -15 -10 -8 4 -13
-15 -11 -37 1 -4 -25 -24 -56 -45 -31 -22 -66 -47 -76 -56 -10 -10 -23 -15
-28 -12 -4 3 -8 1 -8 -5 0 -6 -20 -22 -45 -37 -25 -14 -45 -31 -45 -37 0 -6
-3 -8 -6 -4 -3 3 -18 -5 -32 -19 -15 -13 -30 -24 -35 -24 -8 0 -23 -11 -58
-43 -10 -9 -24 -17 -29 -17 -5 0 -10 -5 -10 -11 0 -5 -4 -7 -10 -4 -5 3 -10 1
-10 -4 0 -6 -5 -11 -10 -11 -6 0 -16 -5 -23 -10 -55 -47 -72 -58 -79 -54 -4 3
-8 -2 -8 -10 0 -9 -3 -15 -7 -14 -10 3 -90 -50 -128 -84 -16 -16 -34 -28 -38
-28 -10 0 -81 -52 -85 -63 -2 -4 -8 -5 -13 -1 -5 3 -9 0 -9 -5 0 -6 -5 -11
-11 -11 -6 0 -17 -6 -24 -12 -33 -30 -45 -38 -55 -38 -5 0 -10 -4 -10 -10 0
-5 -6 -10 -14 -10 -8 0 -16 -4 -18 -8 -3 -8 -136 -102 -143 -102 -3 0 -14 -9
-26 -21 -15 -15 -18 -24 -10 -33 6 -7 8 -16 4 -19 -10 -10 3 -8 32 5 14 6 25
14 25 17 0 4 16 15 35 25 19 11 35 24 35 29 0 6 3 8 6 4 5 -5 27 10 60 41 8 7
14 10 14 5 0 -4 5 0 11 10 6 9 14 15 20 12 5 -4 9 -1 9 4 0 6 5 11 10 11 5 0
19 8 29 17 34 31 50 43 58 43 4 1 23 14 42 30 19 16 39 26 44 23 6 -3 7 -1 3
5 -4 7 -3 12 2 12 5 0 43 24 85 54 41 30 78 52 81 49 3 -4 6 -2 6 4 0 5 43 39
95 74 52 34 95 67 95 72 0 4 5 5 10 2 6 -3 13 1 16 9 3 9 10 16 15 16 11 0
111 70 121 85 5 6 8 6 8 0 0 -6 3 -6 8 1 10 15 181 134 192 134 6 0 10 5 10
10 0 6 7 10 16 10 8 0 13 4 10 9 -3 5 8 14 24 21 17 7 30 16 30 21 0 5 6 9 14
9 8 0 16 3 18 8 3 8 9 12 208 147 80 55 147 103 148 107 2 4 9 8 16 8 7 0 25
11 40 25 15 14 30 25 34 25 4 0 20 11 36 25 16 14 33 25 38 25 5 0 14 4 21 10
57 46 76 60 85 60 6 0 17 9 25 20 8 11 17 17 20 13 4 -3 7 -1 7 6 0 7 5 9 10
6 6 -3 10 -1 10 4 0 6 5 11 11 11 6 0 17 6 24 13 33 29 45 37 55 37 5 0 10 5
10 11 0 5 4 8 9 5 5 -3 11 1 15 9 3 8 11 15 18 15 7 0 28 14 47 30 18 16 37
27 42 24 5 -3 9 -1 9 5 0 5 18 21 40 34 36 21 38 25 26 43 -20 28 -19 35 3 48
11 6 51 32 89 58 70 47 91 72 69 82 -7 2 -5 5 4 5 9 1 19 8 23 16 3 8 9 14 13
13 8 -2 88 48 111 69 7 7 17 13 22 13 12 0 20 28 14 45 -7 17 -34 21 -34 4z"/>
<path d="M4421 2253 c-5 -10 -11 -16 -13 -14 -3 4 -56 -26 -68 -39 -3 -3 -27
-16 -54 -30 -26 -14 -50 -31 -53 -37 -3 -7 -8 -11 -13 -8 -4 2 -16 -3 -26 -13
-34 -29 -83 -62 -94 -62 -5 0 -10 -5 -10 -11 0 -5 -4 -7 -10 -4 -5 3 -10 2
-10 -3 0 -5 -24 -24 -52 -42 -29 -19 -57 -38 -63 -42 -64 -50 -104 -75 -109
-71 -3 4 -6 1 -6 -5 0 -7 -5 -12 -11 -12 -6 0 -17 -6 -24 -12 -33 -30 -45 -38
-55 -38 -5 0 -10 -5 -10 -11 0 -5 -4 -8 -9 -5 -5 3 -11 -1 -15 -9 -3 -8 -12
-15 -21 -15 -8 0 -15 -5 -15 -12 0 -6 -3 -9 -6 -5 -3 3 -13 -1 -22 -10 -10 -8
-48 -37 -87 -64 -38 -27 -64 -49 -57 -49 7 0 11 -4 8 -9 -3 -5 1 -12 10 -15
18 -7 -16 -38 -111 -101 -33 -22 -69 -48 -79 -57 -11 -10 -23 -18 -28 -18 -4
0 -19 -10 -33 -22 -20 -17 -23 -24 -13 -37 7 -9 8 -13 4 -9 -5 4 -20 -4 -33
-18 -12 -14 -23 -21 -23 -17 0 4 -7 -1 -15 -11 -8 -11 -15 -16 -15 -10 0 5 -7
0 -15 -10 -8 -11 -15 -16 -15 -10 0 5 -4 4 -8 -1 -14 -21 -65 -55 -73 -49 -5
3 -9 -2 -9 -11 0 -9 -4 -13 -10 -10 -5 3 -10 1 -10 -4 0 -6 -5 -11 -11 -11 -7
0 -22 -11 -34 -24 -13 -14 -25 -23 -27 -20 -3 2 -16 -6 -29 -18 -14 -13 -29
-25 -34 -27 -25 -10 -85 -55 -85 -63 0 -5 -4 -6 -10 -3 -5 3 -10 1 -10 -4 0
-6 -7 -11 -15 -11 -8 0 -15 -4 -15 -8 0 -4 -15 -16 -32 -27 -18 -10 -35 -21
-38 -24 -14 -16 -75 -54 -87 -54 -7 0 -11 -3 -8 -5 3 -3 -25 -26 -63 -50 -37
-25 -68 -49 -70 -54 -2 -4 -10 -8 -17 -8 -7 0 -15 -3 -17 -8 -1 -4 -30 -25
-63 -47 -33 -21 -67 -47 -76 -57 -9 -10 -19 -15 -23 -11 -3 3 -6 1 -6 -5 0 -7
-6 -12 -14 -12 -8 0 -21 -8 -28 -19 -7 -10 -17 -20 -23 -21 -20 -7 -75 -42
-75 -49 0 -3 -9 -12 -21 -19 -17 -11 -20 -11 -14 0 4 7 -4 0 -18 -15 -14 -16
-29 -27 -34 -25 -4 2 -9 -9 -11 -23 -3 -30 25 -49 34 -24 4 8 10 15 16 15 10
0 197 129 237 164 15 13 21 15 17 6 -6 -13 -5 -13 6 0 23 27 75 60 83 52 5 -4
6 -2 3 3 -3 6 0 16 8 23 8 7 14 10 14 6 0 -6 66 40 80 55 3 4 17 12 33 20 15
8 27 18 27 23 0 4 6 8 13 8 8 0 24 11 37 25 13 14 25 23 28 21 2 -3 16 6 30
19 14 13 29 22 34 19 4 -3 8 3 8 12 0 10 3 14 7 11 3 -4 15 0 25 10 10 9 18
13 18 10 0 -4 8 1 18 11 10 9 29 24 42 32 13 8 31 22 41 32 9 9 20 14 23 11 3
-4 6 -1 6 5 0 7 5 12 10 12 12 0 123 80 128 93 2 4 8 5 13 1 5 -3 9 -1 9 5 0
5 23 23 51 41 28 17 56 35 62 40 46 37 107 79 107 72 0 -4 4 -2 8 3 10 14 122
97 122 90 0 -5 31 18 62 48 10 9 18 14 18 10 0 -5 7 1 15 11 8 11 15 16 15 11
0 -5 10 1 23 12 18 17 106 78 185 128 9 6 25 18 36 27 11 10 28 20 38 24 10 3
18 10 18 15 0 5 6 9 13 9 10 0 27 12 83 59 7 5 15 7 18 4 3 -4 6 -1 6 6 0 7 5
9 10 6 6 -3 10 -2 10 4 0 5 18 20 40 32 22 13 40 27 40 33 0 5 3 7 6 3 4 -3
12 -1 20 6 21 19 36 30 76 57 40 26 45 39 27 57 -8 8 -8 16 0 30 6 10 11 14
11 10 0 -4 10 1 22 12 11 11 25 18 30 15 4 -3 8 -1 8 5 0 6 21 22 46 37 36 21
44 31 40 48 -4 17 7 29 60 64 63 42 82 72 44 72 -10 0 -23 -8 -29 -17z"/>
<path d="M4311 1866 c-12 -7 -18 -15 -15 -19 7 -6 -10 -11 -28 -8 -5 0 -8 -6
-8 -14 0 -8 -3 -14 -7 -13 -9 3 -129 -77 -138 -92 -4 -6 -11 -8 -16 -5 -5 4
-9 1 -9 -5 0 -6 -12 -15 -26 -20 -15 -6 -22 -14 -18 -22 4 -6 3 -8 -4 -4 -6 3
-17 -1 -25 -9 -9 -8 -20 -15 -26 -15 -5 0 -15 -8 -20 -17 -6 -10 -11 -14 -11
-10 0 8 -13 -1 -51 -35 -10 -10 -22 -18 -25 -17 -3 1 -17 -8 -30 -20 -13 -11
-24 -19 -24 -16 0 3 -9 -3 -20 -13 -12 -9 -23 -16 -25 -14 -3 1 -14 -6 -24
-15 -29 -27 -42 -36 -83 -62 -21 -12 -38 -27 -38 -32 0 -6 -5 -7 -10 -4 -6 3
-13 -1 -16 -9 -3 -9 -12 -16 -18 -16 -7 0 -22 -9 -34 -20 -12 -11 -26 -20 -32
-20 -5 0 -10 -4 -10 -9 0 -5 -8 -12 -17 -15 -10 -3 -30 -17 -45 -31 -15 -14
-30 -25 -34 -24 -3 0 -16 -8 -29 -19 -13 -11 -26 -18 -29 -15 -3 3 -8 -2 -12
-11 -3 -9 -12 -16 -20 -16 -8 0 -14 -4 -14 -10 0 -5 -5 -10 -10 -10 -6 0 -20
-9 -32 -20 -12 -10 -25 -17 -30 -14 -4 3 -11 -2 -14 -10 -6 -16 -74 -61 -86
-58 -5 1 -8 -2 -8 -7 0 -5 -17 -20 -37 -32 -21 -13 -40 -26 -43 -29 -3 -3 -22
-16 -42 -29 -21 -12 -38 -27 -38 -32 0 -6 -4 -8 -8 -5 -5 3 -20 -6 -34 -19
-14 -13 -28 -21 -32 -18 -3 3 -8 -2 -12 -11 -3 -9 -12 -16 -20 -16 -8 0 -14
-4 -14 -8 0 -5 -16 -16 -35 -25 -19 -9 -35 -22 -35 -27 0 -6 -4 -8 -10 -5 -5
3 -10 2 -10 -2 0 -5 -15 -17 -32 -28 -18 -10 -41 -27 -50 -37 -9 -11 -20 -19
-25 -19 -4 1 -17 -7 -28 -16 -11 -10 -23 -17 -27 -15 -5 1 -8 -3 -8 -9 0 -5
-4 -8 -9 -5 -5 4 -11 3 -13 -2 -6 -14 -85 -71 -91 -66 -3 3 -12 -3 -19 -15 -7
-12 -18 -21 -25 -21 -7 0 -13 -4 -13 -10 0 -5 -6 -10 -13 -10 -7 0 -25 -11
-40 -25 -15 -14 -27 -23 -27 -20 0 3 -6 1 -13 -5 -52 -44 -72 -58 -76 -56 -3
2 -18 -8 -34 -23 -25 -24 -26 -29 -13 -46 13 -19 15 -19 52 8 22 15 71 48 109
74 39 26 79 55 89 65 10 9 22 15 26 13 5 -3 10 1 13 9 3 7 27 26 54 41 26 16
53 36 60 44 7 9 13 12 13 8 0 -4 12 3 27 17 15 14 30 23 35 20 4 -3 8 -1 8 4
0 5 36 33 80 62 44 29 80 57 80 62 0 5 4 7 9 3 6 -3 14 3 20 12 6 10 11 14 11
9 0 -5 10 0 23 11 12 11 65 49 117 84 52 35 97 67 100 70 10 11 95 66 100 65
3 0 21 14 40 31 19 18 39 33 44 33 4 0 26 14 47 31 21 17 39 28 39 25 0 -3 9
2 19 12 36 32 50 42 59 42 5 0 21 12 36 26 14 15 26 24 26 21 0 -3 12 5 26 18
15 14 33 25 40 25 7 0 14 3 16 8 3 8 176 132 184 132 3 0 12 6 19 13 25 22 40
32 68 46 15 8 27 18 27 21 0 4 13 13 30 20 16 7 27 16 24 21 -3 5 0 9 7 9 7 0
37 19 67 41 30 23 51 36 47 28 -5 -8 7 1 25 19 19 17 38 32 42 32 8 0 17 6 51
35 9 8 89 62 135 91 1 0 4 10 7 22 4 25 -23 34 -54 18z"/>
<path d="M4162 1518 c-7 -7 -12 -9 -12 -5 0 3 -12 -5 -26 -18 -15 -14 -31 -25
-35 -25 -5 0 -18 -8 -28 -17 -31 -28 -44 -38 -78 -58 -18 -11 -33 -23 -33 -28
0 -4 -4 -6 -8 -3 -5 3 -26 -11 -47 -30 -21 -18 -40 -32 -43 -30 -3 4 -28 -14
-57 -41 -8 -7 -18 -13 -24 -13 -6 0 -11 -4 -11 -9 0 -5 -8 -12 -18 -15 -10 -4
-27 -14 -38 -24 -11 -9 -49 -37 -84 -61 -36 -25 -66 -48 -68 -53 -2 -4 -8 -8
-14 -8 -6 0 -28 -14 -49 -31 -21 -17 -39 -27 -39 -23 0 4 -8 -2 -17 -13 -10
-11 -28 -23 -41 -27 -12 -4 -20 -11 -17 -16 2 -4 -9 -13 -25 -20 -17 -7 -30
-17 -30 -23 0 -6 -3 -8 -6 -4 -4 3 -12 1 -20 -6 -33 -29 -44 -37 -54 -37 -5 0
-10 -4 -10 -8 0 -5 -12 -15 -27 -23 -16 -8 -33 -21 -40 -29 -7 -8 -13 -12 -13
-7 0 4 -10 -2 -22 -13 -47 -42 -58 -50 -58 -44 0 3 -18 -8 -39 -25 -21 -17
-42 -31 -45 -31 -6 0 -36 -23 -61 -47 -7 -7 -15 -9 -19 -6 -3 4 -6 0 -6 -7 0
-7 -3 -11 -6 -8 -3 4 -14 -1 -24 -10 -40 -36 -55 -47 -62 -45 -5 2 -8 -2 -8
-7 0 -6 -7 -10 -15 -10 -8 0 -15 -4 -15 -10 0 -5 -12 -16 -27 -24 -16 -8 -38
-24 -50 -36 -13 -11 -23 -18 -23 -15 0 5 -12 -3 -44 -32 -8 -7 -16 -9 -20 -6
-3 4 -6 1 -6 -5 0 -7 -4 -12 -10 -12 -9 0 -36 -19 -66 -48 -8 -7 -14 -11 -14
-7 0 3 -10 -3 -22 -15 -12 -11 -26 -20 -31 -20 -5 0 -18 -10 -28 -22 -11 -11
-19 -18 -19 -14 0 4 -6 1 -13 -6 -17 -15 -10 -48 9 -48 21 0 29 4 26 12 -1 5
7 8 19 8 11 0 17 5 14 10 -5 9 -1 11 20 10 3 0 16 11 30 25 13 15 26 26 29 26
7 -1 53 28 79 49 10 8 20 14 23 12 3 -2 14 6 23 17 10 11 21 18 25 14 3 -3 6
-2 6 3 0 6 30 30 68 55 37 24 78 54 92 67 14 12 33 25 43 28 9 3 17 10 17 15
0 6 5 7 10 4 6 -3 13 1 16 9 3 9 12 16 20 16 8 0 14 5 14 10 0 6 5 10 10 10
11 0 24 9 59 41 9 8 23 13 31 11 7 -3 10 0 6 6 -3 6 2 13 12 16 10 4 27 14 38
24 23 20 113 82 119 82 3 0 13 6 22 14 50 41 115 86 126 89 6 1 18 10 25 20 7
9 19 17 27 17 7 0 15 4 17 8 2 5 45 37 96 72 50 35 92 68 92 73 0 4 5 5 10 2
6 -3 10 -1 10 4 0 6 5 11 11 11 6 0 24 10 39 23 57 45 74 57 83 57 6 0 20 11
32 24 13 14 25 23 28 20 2 -2 10 2 17 11 7 8 19 15 26 15 8 0 14 4 14 8 0 13
130 97 143 94 7 -2 9 0 5 4 -4 4 14 22 40 40 26 18 53 38 60 44 6 6 12 7 12 3
0 -4 5 -1 10 9 20 34 -11 63 -38 36z"/>
<path d="M3765 1006 c-16 -14 -32 -23 -37 -20 -4 3 -8 -2 -8 -11 0 -9 -4 -14
-9 -11 -5 3 -14 -1 -21 -9 -7 -8 -16 -12 -21 -9 -5 3 -9 -2 -9 -10 0 -9 -7
-16 -15 -16 -8 0 -15 -4 -15 -10 0 -5 -7 -10 -15 -10 -8 0 -15 -5 -15 -11 0
-5 -5 -7 -10 -4 -6 3 -13 -1 -16 -9 -3 -9 -10 -14 -14 -11 -4 3 -10 -2 -14
-10 -3 -8 -12 -15 -20 -15 -8 0 -16 -4 -18 -8 -5 -13 -208 -154 -208 -145 0 3
-11 -6 -25 -21 -14 -15 -25 -24 -25 -21 0 4 -6 0 -14 -7 -16 -15 -148 -107
-178 -124 -31 -18 -39 -30 -32 -47 8 -21 38 -22 58 -2 8 8 19 15 24 15 6 0 12
4 14 8 5 12 102 77 111 74 4 -1 7 5 7 13 0 8 3 14 8 13 4 -2 28 12 53 29 26
18 50 29 54 25 5 -4 6 -2 2 3 -3 6 37 39 89 75 52 35 94 68 94 72 0 5 5 6 10
3 6 -3 13 1 16 9 3 9 10 14 14 11 4 -2 15 4 25 15 10 11 22 17 26 14 5 -3 9 2
9 11 0 9 4 14 9 11 4 -3 16 3 26 14 10 11 24 20 32 20 7 0 13 5 13 10 0 6 5
10 10 10 6 0 20 9 32 20 12 11 27 20 34 20 6 0 15 7 18 16 3 8 10 13 15 10 5
-4 8 2 6 11 -2 10 -4 21 -4 26 -2 15 -39 6 -66 -17z"/>
</g>
</svg>
